<svg xmlns="http://www.w3.org/2000/svg" xmlns:xlink="http://www.w3.org/1999/xlink"><symbol id="about" viewBox="0 0 48 48"><path fill="#53545C" fill-rule="evenodd" d="M27 9a3 3 0 1 1-6 0 3 3 0 0 1 6 0zm0 15a3 3 0 1 1-6 0 3 3 0 0 1 6 0zm-3 18a3 3 0 1 0 0-6 3 3 0 0 0 0 6z" clip-rule="evenodd"/></symbol><symbol id="algorithm" viewBox="0 0 48 48"><circle cx="24" cy="24" r="24" fill="#F6F8FD"/><path stroke="#6356F8" stroke-linecap="round" stroke-linejoin="round" stroke-width="1.5" d="M19.694 11.84h8.833c.092 0 .183.006.274.018 3.596.238 6.388 3.073 6.4 6.498v9.772c-.014 3.605-3.098 6.52-6.893 6.513h-8.614c-3.796.007-6.88-2.909-6.893-6.515v-9.77c.012-3.607 3.097-6.522 6.893-6.515z" clip-rule="evenodd"/><path fill="#6356F8" d="M35.202 19.105a.75.75 0 0 0 0-1.5v1.5zm-6.4-.75h-.75c0 .415.335.75.75.75v-.75zm.75-6.498a.75.75 0 0 0-1.5 0h1.5zm-2.35 12.894a.75.75 0 0 0 0-1.5v1.5zm-9.6-1.5a.75.75 0 1 0 0 1.5v-1.5zm4.8-3.06a.75.75 0 0 0 0-1.5v1.5zm-4.8-1.5a.75.75 0 1 0 0 1.5v-1.5zm11.2 10.62a.75.75 0 0 0 0-1.5v1.5zm-11.2-1.5a.75.75 0 1 0 0 1.5v-1.5zm17.6-10.206h-6.4v1.5h6.4v-1.5zm-5.65.75v-6.498h-1.5v6.498h1.5zm-2.35 4.896h-9.6v1.5h9.6v-1.5zm-4.8-4.56h-4.8v1.5h4.8v-1.5zm6.4 9.12h-11.2v1.5h11.2v-1.5z"/></symbol><symbol id="search" viewBox="0 0 49 48"><path fill="#53545C" fill-rule="evenodd" d="M36.67 21.783c0 7.78-6.307 14.087-14.087 14.087-7.78 0-14.087-6.307-14.087-14.087 0-7.78 6.307-14.087 14.087-14.087 7.78 0 14.087 6.307 14.087 14.087zM34.101 36.62a18.702 18.702 0 0 1-11.518 3.945c-10.373 0-18.782-8.409-18.782-18.782C3.8 11.409 12.21 3 22.583 3c10.374 0 18.783 8.41 18.783 18.783 0 4.34-1.472 8.337-3.945 11.517l7.692 7.692a2.348 2.348 0 1 1-3.32 3.32L34.1 36.621z" clip-rule="evenodd"/></symbol><symbol id="back" viewBox="0 0 50 48"><path d="M21.727 47.052L.869 26.194a2.79 2.79 0 0 1-.673-1.027A3.523 3.523 0 0 1 0 23.982c0-.422.065-.817.196-1.185a2.79 2.79 0 0 1 .673-1.027L21.727.912c.58-.58 1.303-.883 2.171-.91.87-.026 1.621.278 2.253.91.633.579.962 1.303.99 2.17.025.87-.278 1.622-.91 2.254L10.744 20.821H46.06c.896 0 1.647.303 2.254.907.604.607.907 1.358.907 2.254 0 .895-.303 1.645-.907 2.25-.607.607-1.358.91-2.254.91H10.745L26.23 42.627c.58.58.883 1.317.91 2.213.026.895-.277 1.632-.91 2.212-.579.632-1.316.948-2.212.948a3.122 3.122 0 0 1-2.291-.948z"/></symbol><symbol id="feedback" viewBox="0 0 48 48"><path fill="#53545C" fill-rule="evenodd" d="M41.455 4.609a5.409 5.409 0 0 0-7.248-.408L11.423 22.566a5.484 5.484 0 0 0-1.448 1.787l-1.46 2.874c-2.41 4.747 2.624 9.826 7.329 7.394l3.164-1.636c.325-.168.631-.368.916-.597l22.518-18.15c2.537-2.045 2.748-5.86.452-8.177l-1.44-1.452zM37.12 7.88a.773.773 0 0 1 1.035.059l1.44 1.452a.79.79 0 0 1-.065 1.168l-22.52 18.15a.775.775 0 0 1-.13.085l-3.165 1.636c-.672.348-1.391-.378-1.047-1.056l1.46-2.874a.782.782 0 0 1 .206-.255L37.12 7.88zM5.333 40.291A2.344 2.344 0 0 0 3 42.646C3 43.946 4.045 45 5.333 45h37.334A2.344 2.344 0 0 0 45 42.646c0-1.3-1.045-2.355-2.333-2.355H5.333z" clip-rule="evenodd"/></symbol><symbol id="ai" viewBox="0 0 48 48"><path fill="#7C7BFE" d="M18 30a2 2 0 1 0 0 4 2 2 0 0 0 0-4zM4 28a2 2 0 0 0-2 2v4a2 2 0 0 0 4 0v-4a2 2 0 0 0-2-2zm40 0a2 2 0 0 0-2 2v4a2 2 0 0 0 4 0v-4a2 2 0 0 0-2-2zM34 14h-8v-2.56A4 4 0 0 0 28 8a4 4 0 1 0-8 0 4 4 0 0 0 2 3.44V14h-8a6 6 0 0 0-6 6v18a6 6 0 0 0 6 6h20a6 6 0 0 0 6-6V20a6 6 0 0 0-6-6zm-6.56 4l-1 4h-4.88l-1-4h6.88zM36 38a2 2 0 0 1-2 2H14a2 2 0 0 1-2-2V20a2 2 0 0 1 2-2h2.44L18 24.48A2 2 0 0 0 20 26h8a2 2 0 0 0 2-1.52L31.56 18H34a2 2 0 0 1 2 2v18zm-6-8a2 2 0 1 0 0 4 2 2 0 0 0 0-4z"/></symbol><symbol id="menu" viewBox="0 0 48 48"><path fill="#7C7B7B" fill-rule="evenodd" d="M45 6.75a.75.75 0 0 1-.75.75H3.75a.75.75 0 1 1 0-1.5h40.5a.75.75 0 0 1 .75.75zm0 15.747a.75.75 0 0 1-.75.75H3.75a.75.75 0 0 1 0-1.5h40.5a.75.75 0 0 1 .75.75zm-.75 16.497a.75.75 0 0 0 0-1.5H3.75a.75.75 0 0 0 0 1.5h40.5z" clip-rule="evenodd"/></symbol><symbol id="crown" viewBox="0 0 48 48"><path fill="#53545C" fill-rule="evenodd" d="M24 6c.863 0 1.656.453 2.06 1.178l6.863 12.285 8.144-7.29a2.426 2.426 0 0 1 2.694-.344c.882.446 1.369 1.376 1.209 2.315l-4.425 25.992C40.362 41.21 39.387 42 38.242 42H9.205c-1.162 0-2.147-.813-2.31-1.908L3.023 14.1c-.139-.933.357-1.848 1.237-2.281a2.426 2.426 0 0 1 2.673.354l8.144 7.29L21.94 7.178C22.344 6.453 23.137 6 24 6zm0 6.95l-6.236 11.163a2.33 2.33 0 0 1-1.68 1.148c-.718.113-1.45-.1-1.98-.573l-5.528-4.949 2.655 17.823h25.025l3.01-17.681-5.37 4.807a2.413 2.413 0 0 1-1.98.573 2.33 2.33 0 0 1-1.68-1.148L24 12.949z" clip-rule="evenodd"/></symbol><symbol id="text-logo" viewBox="0 0 120 54"><path fill="#fff" d="M21.058 22.648a7.71 7.71 0 0 1-.972 3.78c-.624 1.176-1.62 2.124-2.988 2.844-1.344.72-3.048 1.08-5.112 1.08H7.774V40h-5.04V14.872h9.252c1.944 0 3.6.336 4.968 1.008 1.368.672 2.388 1.596 3.06 2.772.696 1.176 1.044 2.508 1.044 3.996zm-9.288 3.636c1.392 0 2.424-.312 3.096-.936.672-.648 1.008-1.548 1.008-2.7 0-2.448-1.368-3.672-4.104-3.672H7.774v7.308h3.996zm30.974-6.228V40h-5.076v-2.52c-.648.864-1.5 1.548-2.556 2.052-1.032.48-2.16.72-3.384.72-1.56 0-2.94-.324-4.14-.972-1.2-.672-2.148-1.644-2.844-2.916-.672-1.296-1.008-2.832-1.008-4.608v-11.7h5.04v10.98c0 1.584.396 2.808 1.188 3.672.792.84 1.872 1.26 3.24 1.26 1.392 0 2.484-.42 3.276-1.26.792-.864 1.188-2.088 1.188-3.672v-10.98h5.076zm9.293-6.696V40h-5.04V13.36h5.04zm9.3 0V40h-5.04V13.36h5.04zm17.085 1.512v15.552c0 1.704.444 3.012 1.332 3.924.888.888 2.136 1.332 3.744 1.332 1.632 0 2.892-.444 3.78-1.332.888-.912 1.332-2.22 1.332-3.924V14.872h5.076v15.516c0 2.136-.468 3.948-1.404 5.436a8.688 8.688 0 0 1-3.708 3.312c-1.536.744-3.252 1.116-5.148 1.116-1.872 0-3.576-.372-5.112-1.116-1.512-.744-2.712-1.848-3.6-3.312-.888-1.488-1.332-3.3-1.332-5.436V14.872h5.04zm24.454 8.064c.648-.912 1.536-1.668 2.664-2.268 1.152-.624 2.46-.936 3.924-.936 1.704 0 3.24.42 4.608 1.26 1.392.84 2.484 2.04 3.276 3.6.816 1.536 1.224 3.324 1.224 5.364s-.408 3.852-1.224 5.436c-.792 1.56-1.884 2.772-3.276 3.636-1.368.864-2.904 1.296-4.608 1.296-1.464 0-2.76-.3-3.888-.9-1.104-.6-2.004-1.356-2.7-2.268v12.348h-5.04V20.056h5.04v2.88zm10.548 7.02c0-1.2-.252-2.232-.756-3.096-.48-.888-1.128-1.56-1.944-2.016a5.104 5.104 0 0 0-2.592-.684c-.912 0-1.776.24-2.592.72-.792.456-1.44 1.128-1.944 2.016-.48.888-.72 1.932-.72 3.132 0 1.2.24 2.244.72 3.132.504.888 1.152 1.572 1.944 2.052.816.456 1.68.684 2.592.684.936 0 1.8-.24 2.592-.72.816-.48 1.464-1.164 1.944-2.052.504-.888.756-1.944.756-3.168z"/></symbol><symbol id="close" viewBox="0 0 48 48"><path fill="#797A89" d="M13.47 33.47a.75.75 0 1 0 1.06 1.06l-1.06-1.06zm11.06-8.94a.75.75 0 1 0-1.06-1.06l1.06 1.06zm-1.06-1.06a.75.75 0 1 0 1.06 1.06l-1.06-1.06zm11.06-8.94a.75.75 0 1 0-1.06-1.06l1.06 1.06zm-10 8.94a.75.75 0 1 0-1.06 1.06l1.06-1.06zm8.94 11.06a.75.75 0 1 0 1.06-1.06l-1.06 1.06zm-10-10a.75.75 0 1 0 1.06-1.06l-1.06 1.06zm-8.94-11.06a.75.75 0 1 0-1.06 1.06l1.06-1.06zm0 21.06l10-10-1.06-1.06-10 10 1.06 1.06zm10-10l10-10-1.06-1.06-10 10 1.06 1.06zm-1.06 0l10 10 1.06-1.06-10-10-1.06 1.06zm1.06-1.06l-10-10-1.06 1.06 10 10 1.06-1.06z"/></symbol><symbol id="comment" viewBox="0 0 48 48"><path fill="#797A89" d="M47.976 4.8c0-2.64-2.136-4.8-4.776-4.8H4.8C2.16 0 0 2.16 0 4.8v28.8c0 2.64 2.16 4.8 4.8 4.8h33.6L48 48l-.024-43.2zm-9.576 24H9.6V24h28.8v4.8zm0-7.2H9.6v-4.8h28.8v4.8zm0-7.2H9.6V9.6h28.8v4.8z"/></symbol><symbol id="check" viewBox="0 0 30 32"><rect width="28" height="28" x="1" y="2" fill="#7C7BFE" rx="9"/><rect width="28" height="28" x="1" y="2" stroke="#7C7BFE" stroke-width="2" rx="9"/><path stroke="#fff" stroke-linecap="round" stroke-linejoin="round" stroke-width="1.5" d="M6.834 16.646l5.445 5.813 10.888-11.625"/></symbol><symbol id="bookmark" viewBox="0 0 53 48"><path fill="#7C7BFE" d="M47.884 18.358a2.014 2.014 0 0 0-.726-.936 2.3 2.3 0 0 0-1.168-.416L33.552 16.1 28.169 5.178a2.056 2.056 0 0 0-.803-.86 2.323 2.323 0 0 0-1.184-.322c-.42 0-.831.111-1.184.32-.353.21-.632.508-.804.86L18.81 16.1l-12.438.906a2.29 2.29 0 0 0-1.151.404 2.02 2.02 0 0 0-.729.91 1.842 1.842 0 0 0-.074 1.127c.093.375.303.717.603.985l9.192 8.214-3.25 12.904c-.1.39-.068.8.09 1.173.158.374.435.696.795.924.36.228.786.351 1.223.354.438.003.866-.114 1.23-.337l11.88-7.26 11.88 7.26c.371.226.81.343 1.255.334a2.318 2.318 0 0 0 1.24-.384c.36-.241.631-.577.777-.964.145-.386.159-.804.037-1.198l-3.99-12.8 9.897-8.164c.648-.536.885-1.372.606-2.13z"/></symbol><symbol id="bookmark-empty" viewBox="0 0 53 48"><path fill="#DFE2E6" d="M47.884 18.358a2.014 2.014 0 0 0-.726-.936 2.3 2.3 0 0 0-1.168-.416L33.552 16.1 28.169 5.178a2.056 2.056 0 0 0-.803-.86 2.323 2.323 0 0 0-1.184-.322c-.42 0-.831.111-1.184.32-.353.21-.632.508-.804.86L18.81 16.1l-12.438.906a2.29 2.29 0 0 0-1.151.404 2.02 2.02 0 0 0-.729.91 1.842 1.842 0 0 0-.074 1.127c.093.375.303.717.603.985l9.192 8.214-3.25 12.904c-.1.39-.068.8.09 1.173.158.374.435.696.795.924.36.228.786.351 1.223.354.438.003.866-.114 1.23-.337l11.88-7.26 11.88 7.26c.371.226.81.343 1.255.334a2.318 2.318 0 0 0 1.24-.384c.36-.241.631-.577.777-.964.145-.386.159-.804.037-1.198l-3.99-12.8 9.897-8.164c.648-.536.885-1.372.606-2.13z"/></symbol><symbol id="comment-green" viewBox="0 0 48 48"><path fill="#37C6D9" d="M47.976 4.8c0-2.64-2.136-4.8-4.776-4.8H4.8C2.16 0 0 2.16 0 4.8v28.8c0 2.64 2.16 4.8 4.8 4.8h33.6L48 48l-.024-43.2zm-9.576 24H9.6V24h28.8v4.8zm0-7.2H9.6v-4.8h28.8v4.8zm0-7.2H9.6V9.6h28.8v4.8z"/></symbol><symbol id="check-empty" viewBox="0 0 30 30"><rect width="28" height="28" x="1" y="1" fill="#fff" rx="9"/><rect width="28" height="28" x="1" y="1" stroke="#7C7BFE" stroke-width="2" rx="9"/></symbol><symbol id="condition" viewBox="0 0 48 48"><path fill="#53545C" fill-rule="evenodd" d="M26.334 42.666a2.333 2.333 0 1 1-4.666 0v-7.998a2.334 2.334 0 0 1 4.666 0v7.998zm0-29.334a2.334 2.334 0 0 1-4.666 0V5.334a2.334 2.334 0 0 1 4.666 0v7.998zM9.151 38.849a2.333 2.333 0 0 0 3.3 0l5.656-5.656a2.333 2.333 0 1 0-3.3-3.3L9.15 35.548a2.334 2.334 0 0 0 0 3.3zm20.743-20.743a2.334 2.334 0 0 0 3.3 0l5.655-5.656a2.333 2.333 0 1 0-3.3-3.3l-5.655 5.656a2.334 2.334 0 0 0 0 3.3zM3 23.999a2.334 2.334 0 0 0 2.334 2.333h7.998a2.334 2.334 0 0 0 0-4.667H5.334A2.333 2.333 0 0 0 3 24zm29.335 0a2.334 2.334 0 0 0 2.333 2.333h7.998a2.334 2.334 0 0 0 0-4.667h-7.998A2.333 2.333 0 0 0 32.335 24zm6.516 14.85a2.334 2.334 0 0 1-3.3 0l-5.656-5.656a2.333 2.333 0 1 1 3.3-3.3l5.656 5.655a2.334 2.334 0 0 1 0 3.3zM18.108 18.106a2.334 2.334 0 0 1-3.3 0L9.153 12.45a2.333 2.333 0 1 1 3.3-3.3l5.655 5.656a2.334 2.334 0 0 1 0 3.3z" clip-rule="evenodd"/></symbol><symbol id="datastructure" viewBox="0 0 48 48"><circle cx="24" cy="24" r="24" fill="#F6F8FD"/><path stroke="#6356F8" stroke-linecap="round" stroke-linejoin="round" stroke-width="1.5" d="M30.08 24l-5.74 3.547v7.094l11.48-7.094v-7.092L24.34 13.36v7.094L30.08 24z" clip-rule="evenodd"/><path fill="#6356F8" d="M13.254 19.817a.75.75 0 0 0-.789 1.276l.789-1.276zm10.691 8.368a.75.75 0 1 0 .789-1.276l-.789 1.276zm-10.336-7.73a.75.75 0 0 0-1.5 0h1.5zm-1.5 7.092a.75.75 0 0 0 1.5 0h-1.5zm.356-7.73a.75.75 0 1 0 .789 1.276l-.789-1.276zm12.269-5.818a.75.75 0 0 0-.789-1.276l.789 1.276zm0 7.094a.75.75 0 1 0-.789-1.276l.789 1.276zm-12.269 5.816a.75.75 0 0 0 .789 1.276l-.789-1.276zm.789 0a.75.75 0 1 0-.789 1.276l.789-1.276zm10.691 8.37a.75.75 0 0 0 .789-1.276l-.789 1.276zm12.269-14.186a.75.75 0 1 0-.789-1.276l.789 1.276zM30.079 24l-.394-.638a.75.75 0 0 0 0 1.276L30.08 24zm5.346 4.184a.75.75 0 1 0 .789-1.276l-.789 1.276zm-22.96-7.092l11.48 7.092.789-1.276-11.48-7.092-.789 1.276zm-.356-.638v7.092h1.5v-7.092h-1.5zm1.145.638l11.48-7.094-.789-1.276-11.48 7.094.789 1.276zm10.691-1.276l-11.48 7.092.789 1.276 11.48-7.092-.789-1.276zm-11.48 8.368l11.48 7.094.789-1.276-11.48-7.094-.789 1.276zm22.96-8.368l-5.74 3.546.789 1.276 5.74-3.546-.789-1.276zm-5.74 4.822l5.74 3.546.789-1.276-5.74-3.546-.789 1.276z"/></symbol><symbol id="computerstructure" viewBox="0 0 48 48"><circle cx="24" cy="24" r="24" fill="#F6F8FD"/><path fill="#6356F8" d="M16.153 16.361a.75.75 0 0 0-1.5 0h1.5zm-.75 12.865h-.75v.005l.75-.005zm.63 1.384l-.506.554.506-.554zm1.502.564v-.75h-.006l.006.75zm16.452 0l.006-.75h-.006v.75zm1.502-.564l.506.554-.506-.554zm.63-1.384l.75.005v-.005h-.75zm0-10.922h.75v-.005l-.75.005zm-.63-1.384l-.506.554.506-.554zm-1.502-.564v.75h.006l-.006-.75zm-7.53-.75a.75.75 0 0 0 0 1.5v-1.5zm-11.802.75a.75.75 0 0 0 1.5 0h-1.5zm.75-.97l-.75-.004v.005h.75zm.628-1.381l.507.553-.507-.553zm1.499-.566l-.004.75h.004v-.75zm6.796 0v.75h.006l-.006-.75zm1.502.564l.506-.554-.506.554zm.63 1.384h.75v-.005l-.75.005zm-.75.974a.75.75 0 0 0 1.5 0h-1.5zm-10.302-.75a.75.75 0 0 0 0 1.5v-1.5zm11.049 1.5a.75.75 0 0 0 0-1.5v1.5zm6.53 14.062a.75.75 0 0 0-1.5 0h1.5zm-.75 1.52h-.75v.012l.75-.012zm-.612 1.423l.517.543-.517-.543zm-1.518.603v.75h.009l-.009-.75zm-16.455 0l-.008.75h.008v-.75zm-1.518-.6l-.516.544.516-.544zm-.614-1.42l.75.01v-.01h-.75zm0-11.328h.75v-.01l-.75.01zm.614-1.42l-.516-.544.516.544zm1.518-.6v-.75h-.008l.008.75zm1.751.75a.75.75 0 0 0 0-1.5v1.5zm-.75-3.74v12.865h1.5V16.361h-1.5zm0 12.87c.005.74.327 1.433.874 1.933l1.012-1.108a1.142 1.142 0 0 1-.386-.835l-1.5.01zm.874 1.933c.546.498 1.27.765 2.014.76l-.012-1.5a1.454 1.454 0 0 1-.99-.368l-1.012 1.108zm2.008.76h16.452v-1.5H17.535v1.5zm16.446 0a2.954 2.954 0 0 0 2.014-.76l-1.012-1.108a1.45 1.45 0 0 1-.99.367l-.012 1.5zm2.014-.76c.547-.5.87-1.194.874-1.933l-1.5-.01a1.142 1.142 0 0 1-.386.835l1.012 1.108zm.874-1.938V18.304h-1.5v10.922h1.5zm0-10.927a2.641 2.641 0 0 0-.874-1.933l-1.012 1.108c.253.23.384.533.386.835l1.5-.01zm-.874-1.933a2.955 2.955 0 0 0-2.014-.76l.012 1.5c.38-.003.736.135.99.368l1.012-1.108zm-2.008-.76h-7.53v1.5h7.53v-1.5zm-17.832.75v-.97h-1.5v.97h1.5zm0-.964c.002-.302.133-.603.385-.834l-1.013-1.106a2.64 2.64 0 0 0-.872 1.93l1.5.01zm.385-.834c.254-.232.608-.37.988-.368l.008-1.5a2.953 2.953 0 0 0-2.009.762l1.013 1.106zm.992-.368h6.796v-1.5h-6.796v1.5zm6.802 0c.38-.003.736.134.99.367l1.012-1.108a2.954 2.954 0 0 0-2.014-.76l.012 1.5zm.99.367c.253.23.384.533.386.835l1.5-.01a2.641 2.641 0 0 0-.874-1.933l-1.012 1.108zm.386.83v.974h1.5v-.974h-1.5zM15.408 17.11h11.049v-1.5H15.408v1.5zm16.078 14.062v1.52h1.5v-1.52h-1.5zm0 1.532c.005.312-.123.625-.378.867l1.034 1.087a2.672 2.672 0 0 0 .844-1.978l-1.5.024zm-.378.867a1.49 1.49 0 0 1-1.009.397l.017 1.5a2.99 2.99 0 0 0 2.026-.81l-1.034-1.087zm-1 .397H13.651v1.5h16.455v-1.5zm-16.449 0a1.49 1.49 0 0 1-1.01-.395l-1.03 1.09a2.99 2.99 0 0 0 2.025.805l.015-1.5zm-1.01-.395a1.173 1.173 0 0 1-.38-.865l-1.5-.02c-.008.75.304 1.458.85 1.974l1.03-1.089zm-.38-.875V21.371h-1.5v11.328h1.5zm0-11.338a1.173 1.173 0 0 1 .38-.865l-1.03-1.09a2.673 2.673 0 0 0-.85 1.974l1.5-.019zm.38-.865a1.491 1.491 0 0 1 1.01-.395l-.015-1.5a2.99 2.99 0 0 0-2.026.806l1.032 1.089zm1.003-.395h1.751v-1.5h-1.751v1.5z"/></symbol><symbol id="game-check-mine" viewBox="0 0 48 48"><path fill="#FC0" d="M24 0C10.752 0 0 10.752 0 24s10.752 24 24 24 24-10.752 24-24S37.248 0 24 0zm-4.8 36l-12-12 3.384-3.384 8.616 8.592 18.216-18.216L40.8 14.4 19.2 36z"/></symbol><symbol id="database" viewBox="0 0 48 48"><circle cx="24" cy="24" r="24" fill="#F6F8FD"/><path stroke="#6356F8" stroke-linecap="round" stroke-linejoin="round" stroke-width="1.5" d="M12.48 20.533v-3.547c0-1.959 1.672-3.546 3.733-3.546h14.933c.99 0 1.94.373 2.64 1.038a3.458 3.458 0 0 1 1.094 2.508v3.547h-22.4z" clip-rule="evenodd"/><path fill="#6356F8" d="M13.23 20.533a.75.75 0 0 0-1.5 0h1.5zm22.4 8.866a.75.75 0 1 0-1.5 0h1.5zm.001-8.866a.75.75 0 0 0-1.5 0h1.5zm-1.5 8.866a.75.75 0 1 0 1.5 0h-1.5zm.75.75a.75.75 0 0 0 0-1.5v1.5zm-11.2-1.5a.75.75 0 0 0 0 1.5v-1.5zm-.75-8.116a.75.75 0 1 0 1.5 0h-1.5zm1.5-7.094a.75.75 0 1 0-1.5 0h1.5zm-12.7 7.094V29.4h1.5v-8.866h-1.5zm0 8.866c0 3.389 2.88 6.07 6.35 6.07v-1.5c-2.716 0-4.85-2.082-4.85-4.57h-1.5zm6.35 6.07h11.2v-1.5h-11.2v1.5zm11.2 0c3.47 0 6.35-2.681 6.35-6.07h-1.5c0 2.488-2.135 4.57-4.85 4.57v1.5zm4.85-14.936V29.4h1.5v-8.866h-1.5zm.75 8.116h-11.2v1.5h11.2v-1.5zm-10.45-8.116V13.44h-1.5v7.094h1.5z"/></symbol><symbol id="heart-empty-gray" viewBox="0 0 56 50"><path stroke="#797A89" stroke-linejoin="round" stroke-width="2" d="M54.333 16.633c0 4.123-1.583 8.085-4.41 11.015-6.51 6.747-12.823 13.782-19.576 20.285a3.901 3.901 0 0 1-5.484-.12L5.41 27.648c-5.88-6.096-5.88-15.935 0-22.03 5.938-6.155 15.611-6.155 21.549 0l.707.732.707-.732C31.22 2.665 35.097 1 39.147 1c4.05 0 7.928 1.665 10.775 4.618 2.828 2.93 4.411 6.89 4.411 11.015z"/></symbol><symbol id="heart-empty-green" viewBox="0 0 56 50"><path stroke="#37C6D9" stroke-linejoin="round" stroke-width="2" d="M54.333 16.633c0 4.123-1.583 8.085-4.41 11.015-6.51 6.747-12.823 13.782-19.576 20.285a3.901 3.901 0 0 1-5.484-.12L5.41 27.648c-5.88-6.096-5.88-15.935 0-22.03 5.938-6.155 15.611-6.155 21.549 0l.707.732.707-.732C31.22 2.665 35.097 1 39.147 1c4.05 0 7.928 1.665 10.775 4.618 2.828 2.93 4.411 6.89 4.411 11.015z"/></symbol><symbol id="google" viewBox="0 0 48 48"><path fill="url(#a)" d="M0 0h48v48H0z"/><defs><pattern id="a" width="1" height="1" patternContentUnits="objectBoundingBox"><use transform="scale(.00098)" xlink:href="#b"/></pattern></defs></symbol><symbol id="game-me" viewBox="0 0 48 48"><rect width="48" height="48" fill="#FC0" rx="24"/><path fill="#fff" d="M25.64 16.96V31h-3.42v-8.42L19.08 31h-2.76l-3.16-8.44V31H9.74V16.96h4.04l3.94 9.72 3.9-9.72h4.02zm12.99 8.28c0 .32-.02.653-.06 1h-7.74c.053.693.273 1.227.66 1.6.4.36.886.54 1.46.54.853 0 1.446-.36 1.78-1.08h3.64a4.932 4.932 0 0 1-1.02 1.98 4.964 4.964 0 0 1-1.82 1.38c-.734.333-1.554.5-2.46.5-1.094 0-2.067-.233-2.92-.7a4.979 4.979 0 0 1-2-2c-.48-.867-.72-1.88-.72-3.04 0-1.16.233-2.173.7-3.04a4.979 4.979 0 0 1 2-2c.853-.467 1.833-.7 2.94-.7 1.08 0 2.04.227 2.88.68.84.453 1.493 1.1 1.96 1.94.48.84.72 1.82.72 2.94zm-3.5-.9c0-.587-.2-1.053-.6-1.4-.4-.347-.9-.52-1.5-.52-.574 0-1.06.167-1.46.5-.387.333-.627.807-.72 1.42h4.28z"/></symbol><symbol id="game-check-yours" viewBox="0 0 48 48"><path fill="#E63946" d="M24 0C10.752 0 0 10.752 0 24s10.752 24 24 24 24-10.752 24-24S37.248 0 24 0zm-4.8 36l-12-12 3.384-3.384 8.616 8.592 18.216-18.216L40.8 14.4 19.2 36z"/></symbol><symbol id="heart-green" viewBox="0 0 56 50"><path fill="#37C6D9" stroke="#37C6D9" stroke-linejoin="round" stroke-width="2" d="M54.333 16.633c0 4.123-1.583 8.085-4.41 11.015-6.51 6.747-12.823 13.782-19.576 20.285a3.901 3.901 0 0 1-5.484-.12L5.41 27.648c-5.88-6.096-5.88-15.935 0-22.03 5.938-6.155 15.611-6.155 21.549 0l.707.732.707-.732C31.22 2.665 35.097 1 39.147 1c4.05 0 7.928 1.665 10.775 4.618 2.828 2.93 4.411 6.89 4.411 11.015z"/></symbol><symbol id="network" viewBox="0 0 48 48"><circle cx="24" cy="24" r="24" fill="#F6F8FD"/><path stroke="#6356F8" stroke-linecap="round" stroke-linejoin="round" stroke-width="1.5" d="M21.379 21.715c0-1.306 1.142-2.365 2.552-2.365 1.41 0 2.552 1.058 2.552 2.365 0 1.306-1.143 2.365-2.552 2.365-.677 0-1.326-.25-1.805-.693a2.28 2.28 0 0 1-.747-1.672zm8.715 11.341l-4.86-5.025a1.835 1.835 0 0 0-1.302-.531c-.496 0-.968.193-1.303.531l-4.861 5.025a1.386 1.386 0 0 0-.213 1.61c.284.528.88.848 1.515.813h9.722c.635.035 1.23-.285 1.514-.813.284-.527.2-1.161-.212-1.61z" clip-rule="evenodd"/><path fill="#6356F8" d="M18.346 27.018a.75.75 0 0 0 .965-1.148l-.965 1.148zm.965-10.64a.75.75 0 1 0-.965-1.148l.965 1.148zm9.238 9.492a.75.75 0 0 0 .966 1.148l-.966-1.148zm.966-10.64a.75.75 0 0 0-.966 1.148l.966-1.148zm2.736 13.14a.75.75 0 1 0 1.215.88l-1.215-.88zM33.466 13a.75.75 0 1 0-1.215.879l1.215-.88zM14.394 29.248a.75.75 0 0 0 1.216-.88l-1.216.88zm1.216-15.369a.75.75 0 0 0-1.216-.88l1.216.88zm3.701 11.99c-1.458-1.226-2.275-2.951-2.275-4.745h-1.5c0 2.258 1.03 4.397 2.81 5.894l.965-1.148zm-2.275-4.745c0-1.794.817-3.52 2.275-4.746l-.965-1.148c-1.78 1.497-2.81 3.635-2.81 5.894h1.5zm12.479 5.894c1.78-1.497 2.81-3.636 2.81-5.894h-1.5c0 1.794-.817 3.52-2.276 4.746l.966 1.148zm2.81-5.894c0-2.259-1.03-4.397-2.81-5.894l-.966 1.148c1.459 1.226 2.276 2.952 2.276 4.746h1.5zm1.141 8.125c3.553-4.912 3.553-11.337 0-16.25l-1.215.88c3.173 4.387 3.173 10.104 0 14.491l1.215.88zm-17.856-.88c-3.173-4.387-3.173-10.103 0-14.49l-1.216-.88c-3.552 4.912-3.552 11.337 0 16.249l1.216-.88z"/></symbol><symbol id="kakao" viewBox="0 0 48 48"><path fill="url(#a)" d="M0 0h48v48H0z"/><defs><pattern id="a" width="1" height="1" patternContentUnits="objectBoundingBox"><use transform="scale(.00463)" xlink:href="#b"/></pattern></defs></symbol><symbol id="naver" viewBox="0 0 48 48"><rect width="48" height="48" fill="url(#a)" rx="4"/><defs><pattern id="a" width="1" height="1" patternContentUnits="objectBoundingBox"><use transform="scale(.00444)" xlink:href="#b"/></pattern></defs></symbol><symbol id="problem" viewBox="0 0 48 48"><path fill="#53545C" fill-rule="evenodd" d="M7.943 4C5.765 4 4 5.79 4 8v32c0 2.21 1.765 4 3.943 4h31.542c2.177 0 3.942-1.79 3.942-4v-8c0-1.105-.882-2-1.971-2s-1.971.895-1.971 2v8H7.943V8h15.77c1.09 0 1.972-.895 1.972-2s-.883-2-1.971-2H7.943zm31.675 1.768a3.9 3.9 0 0 0-5.255.141L14.698 24.731a4.008 4.008 0 0 0-1.045 1.676L12.21 30.92c-1.057 3.306 2.259 6.312 5.379 4.877l4.624-2.128a3.94 3.94 0 0 0 1.077-.733l19.472-18.637c1.71-1.637 1.637-4.419-.156-5.961l-2.99-2.57zm-2.55 3.05l2.99 2.571-19.473 18.637-4.624 2.128 1.442-4.513L37.068 8.819z" clip-rule="evenodd"/></symbol><symbol id="show" viewBox="0 0 53 48"><path fill="#fff" d="M0 0h52.8v48H0z"/><path fill="#fff" fill-rule="evenodd" d="M22 14l11 10-11 10" clip-rule="evenodd"/><path stroke="#7C7BFE" stroke-linecap="round" stroke-linejoin="round" stroke-width="1.5" d="M22 14l11 10-11 10" fill="#fff"/></symbol><symbol id="time" viewBox="0 0 48 48"><path fill="#53545C" fill-rule="evenodd" d="M24 44.5c11.322 0 20.5-9.178 20.5-20.5S35.322 3.5 24 3.5 3.5 12.678 3.5 24 12.678 44.5 24 44.5zM40 24c0 8.837-7.163 16-16 16S8 32.837 8 24 15.163 8 24 8s16 7.163 16 16zM26.25 14a2.25 2.25 0 0 0-4.5 0v8.757a5.25 5.25 0 0 0 1.538 3.713l3.121 3.121a2.25 2.25 0 1 0 3.182-3.182l-3.121-3.121a.75.75 0 0 1-.22-.53V14z" clip-rule="evenodd"/></symbol><symbol id="smile" viewBox="0 0 48 48"><path fill="#53545C" fill-rule="evenodd" d="M8 24c0-8.837 7.163-16 16-16s16 7.163 16 16-7.163 16-16 16S8 32.837 8 24zM24 4C12.954 4 4 12.954 4 24s8.954 20 20 20 20-8.954 20-20S35.046 4 24 4zm-7 18a3 3 0 1 0 0-6 3 3 0 0 0 0 6zm17-3a3 3 0 1 1-6 0 3 3 0 0 1 6 0zm-18.633 7.103a2 2 0 0 1 2.527 1.255l.008.02a7.578 7.578 0 0 0 .293.664 8.822 8.822 0 0 0 1.091 1.678C20.28 30.91 21.762 32 24 32c2.238 0 3.72-1.089 4.714-2.28a8.794 8.794 0 0 0 1.335-2.213l.05-.128.007-.021a2 2 0 0 1 3.791 1.274L32 28l1.897.634v.002l-.002.004-.004.01-.009.027-.028.079a11.48 11.48 0 0 1-.471 1.076 12.795 12.795 0 0 1-1.597 2.448C30.28 34.09 27.762 36 24 36c-3.762 0-6.28-1.911-7.786-3.72a12.795 12.795 0 0 1-1.97-3.272 8.182 8.182 0 0 1-.126-.331l-.01-.027-.003-.01-.001-.004v-.002c-.001 0-.001-.002 1.896-.634l-1.897.633a2 2 0 0 1 1.264-2.53z" clip-rule="evenodd"/></symbol><symbol id="os" viewBox="0 0 48 48"><circle cx="24" cy="24" r="24" fill="#F6F8FD"/><path stroke="#6356F8" stroke-linecap="round" stroke-linejoin="round" stroke-width="1.5" d="M19.726 21.839h-4.651a2.644 2.644 0 0 0-1.826.703 2.39 2.39 0 0 0-.769 1.724v9.187c.013 1.351 1.174 2.437 2.595 2.426h4.651a2.644 2.644 0 0 0 1.826-.703 2.391 2.391 0 0 0 .768-1.724v-9.186a2.391 2.391 0 0 0-.768-1.724 2.644 2.644 0 0 0-1.826-.703zm0-9.359h-4.651c-1.392-.037-2.553 1.005-2.595 2.329v1.581c.042 1.324 1.203 2.366 2.595 2.33h4.651c1.392.036 2.553-1.006 2.595-2.33v-1.582c-.043-1.323-1.203-2.365-2.595-2.329zm8.468 14.04h4.65a2.644 2.644 0 0 0 1.826-.702 2.39 2.39 0 0 0 .77-1.726v-9.185a2.39 2.39 0 0 0-.77-1.725 2.644 2.644 0 0 0-1.825-.702h-4.65a2.644 2.644 0 0 0-1.827.702 2.39 2.39 0 0 0-.768 1.725v9.185c.005.65.282 1.27.768 1.725a2.644 2.644 0 0 0 1.826.703zm.002 9.36h4.65c1.392.037 2.554-1.005 2.596-2.33v-1.58c-.042-1.324-1.203-2.366-2.595-2.33h-4.651c-1.392-.036-2.553 1.006-2.594 2.33v1.58c.04 1.325 1.201 2.367 2.594 2.33z" clip-rule="evenodd"/></symbol><symbol id="score" viewBox="0 0 48 48"><path fill="#53545C" fill-rule="evenodd" d="M14 6a4 4 0 0 0-4 4v9.997c0 7.055 5.217 12.89 12.003 13.861V38h-8.288a2 2 0 1 0 0 4H34.29a2 2 0 1 0 0-4h-8.288v-4.142c6.786-.97 12.002-6.806 12.002-13.86V10a4 4 0 0 0-4-4H14zm0 4h20.005v9.997C34.005 25.522 29.527 30 24.003 30 18.478 30 14 25.522 14 19.997V10zm-6.466 3.283l-.009.011-.048.06a12.365 12.365 0 0 0-.782 1.104 7.152 7.152 0 0 0-.536 1.006 2.776 2.776 0 0 0-.132.386C6 15.95 6 15.998 6 16c0 .001.001.049.027.15.025.102.067.23.132.386.131.315.321.663.536 1.007a12.389 12.389 0 0 0 .782 1.103l.048.06.009.01a2 2 0 0 1-3.068 2.568L6 20l-1.534 1.284-.002-.003-.003-.003-.007-.01-.024-.028-.079-.098a16.376 16.376 0 0 1-1.046-1.477 11.096 11.096 0 0 1-.839-1.592C2.232 17.51 2 16.779 2 16c0-.78.232-1.51.466-2.073a11.09 11.09 0 0 1 .839-1.592A16.37 16.37 0 0 1 4.43 10.76l.024-.028.007-.01.003-.003.002-.002 1.51 1.263-1.51-1.263a2 2 0 0 1 3.07 2.564l-.002.002zm32.94.011l-.008-.01a2 2 0 0 1 3.068-2.567l-1.51 1.263 1.51-1.263.002.002.003.003.007.01.024.029a10.677 10.677 0 0 1 .34.435c.212.281.497.679.785 1.139.285.455.595 1.006.839 1.592.234.562.466 1.294.466 2.073 0 .78-.232 1.51-.466 2.073a11.097 11.097 0 0 1-.839 1.592 16.382 16.382 0 0 1-1.125 1.575l-.024.029-.007.009-.003.003-.002.003L42 20l1.534 1.284a2 2 0 0 1-3.068-2.567l.009-.01.048-.06a12.383 12.383 0 0 0 .782-1.104c.215-.344.405-.692.536-1.007.065-.155.107-.284.132-.385A.776.776 0 0 0 42 16a.775.775 0 0 0-.027-.152 2.773 2.773 0 0 0-.132-.385 7.15 7.15 0 0 0-.536-1.007 12.359 12.359 0 0 0-.782-1.103l-.048-.06z" clip-rule="evenodd"/></symbol><symbol id="upload-gray" viewBox="0 0 68 68"><g filter="url(#a)"><rect width="48" height="48" x="10" y="10" fill="#797A89" rx="8"/><path fill="#fff" fill-rule="evenodd" d="M29.632 29.557a1 1 0 0 1-1.264-1.55l4.369-3.559a2 2 0 0 1 2.526 0l4.369 3.559a1 1 0 0 1-1.264 1.55l-3.297-2.686v16.13a1 1 0 0 1-2 0V26.756l-3.44 2.801z" clip-rule="evenodd"/></g><defs><filter id="a" width="68" height="68" x="0" y="0" color-interpolation-filters="sRGB" filterUnits="userSpaceOnUse"><feFlood flood-opacity="0" result="BackgroundImageFix"/><feColorMatrix in="SourceAlpha" result="hardAlpha" values="0 0 0 0 0 0 0 0 0 0 0 0 0 0 0 0 0 0 127 0"/><feOffset/><feGaussianBlur stdDeviation="5"/><feComposite in2="hardAlpha" operator="out"/><feColorMatrix values="0 0 0 0 0.516667 0 0 0 0 0.516667 0 0 0 0 0.516667 0 0 0 0.15 0"/><feBlend in2="BackgroundImageFix" result="effect1_dropShadow_150_24007"/><feBlend in="SourceGraphic" in2="effect1_dropShadow_150_24007" result="shape"/></filter></defs></symbol><symbol id="heart-gray" viewBox="0 0 56 50"><path fill="#797A89" stroke="#797A89" stroke-linejoin="round" stroke-width="2" d="M54.333 16.633c0 4.123-1.583 8.085-4.41 11.015-6.51 6.747-12.823 13.782-19.576 20.285a3.901 3.901 0 0 1-5.484-.12L5.41 27.648c-5.88-6.096-5.88-15.935 0-22.03 5.938-6.155 15.611-6.155 21.549 0l.707.732.707-.732C31.22 2.665 35.097 1 39.147 1c4.05 0 7.928 1.665 10.775 4.618 2.828 2.93 4.411 6.89 4.411 11.015z"/></symbol><symbol id="upload-black" viewBox="0 0 68 68"><g filter="url(#a)"><rect width="48" height="48" x="10" y="10" fill="#53545C" rx="8"/><path fill="#fff" fill-rule="evenodd" d="M29.632 29.557a1 1 0 0 1-1.264-1.55l4.369-3.559a2 2 0 0 1 2.526 0l4.369 3.559a1 1 0 0 1-1.264 1.55l-3.297-2.686v16.13a1 1 0 0 1-2 0V26.756l-3.44 2.801z" clip-rule="evenodd"/></g><defs><filter id="a" width="68" height="68" x="0" y="0" color-interpolation-filters="sRGB" filterUnits="userSpaceOnUse"><feFlood flood-opacity="0" result="BackgroundImageFix"/><feColorMatrix in="SourceAlpha" result="hardAlpha" values="0 0 0 0 0 0 0 0 0 0 0 0 0 0 0 0 0 0 127 0"/><feOffset/><feGaussianBlur stdDeviation="5"/><feComposite in2="hardAlpha" operator="out"/><feColorMatrix values="0 0 0 0 0.516667 0 0 0 0 0.516667 0 0 0 0 0.516667 0 0 0 0.15 0"/><feBlend in2="BackgroundImageFix" result="effect1_dropShadow_150_23991"/><feBlend in="SourceGraphic" in2="effect1_dropShadow_150_23991" result="shape"/></filter></defs></symbol></svg>