<svg width="0" height="0" class="hidden">
  <symbol fill="none" xmlns="http://www.w3.org/2000/svg" viewBox="0 0 24 24" id="bookmark">
    <path d="M23.0161 9.13667C22.9466 8.94864 22.8185 8.78342 22.6476 8.66143C22.4767 8.53945 22.2706 8.46607 22.0547 8.45036L15.7406 7.99045L13.0083 2.44617C12.9213 2.2676 12.7797 2.11593 12.6008 2.00947C12.4218 1.90301 12.213 1.8463 11.9997 1.84619C11.7863 1.84608 11.5775 1.90258 11.3984 2.00886C11.2193 2.11515 11.0776 2.26667 10.9903 2.44516L8.25802 7.99045L1.94391 8.45036C1.73176 8.46577 1.52895 8.53687 1.35974 8.65517C1.19052 8.77346 1.06207 8.93394 0.989749 9.11741C0.917426 9.30087 0.904296 9.49955 0.951928 9.68968C0.99956 9.8798 1.10594 10.0533 1.25834 10.1895L5.92442 14.3591L4.27418 20.9095C4.22407 21.1078 4.24013 21.3153 4.32028 21.5051C4.40042 21.6949 4.54095 21.8582 4.72363 21.9739C4.9063 22.0896 5.12269 22.1523 5.34472 22.1539C5.56674 22.1554 5.78415 22.0957 5.96873 21.9826L11.9993 18.2973L18.0299 21.9826C18.2186 22.0974 18.441 22.1566 18.6674 22.152C18.8938 22.1475 19.1133 22.0795 19.2963 21.9572C19.4792 21.8349 19.617 21.6642 19.691 21.468C19.7649 21.2718 19.7716 21.0595 19.71 20.8598L17.6843 14.3622L22.7082 10.2179C23.0371 9.94582 23.1578 9.52145 23.0161 9.13667Z" fill="#7C7BFE"></path>
  </symbol>
  <symbol fill="none" xmlns="http://www.w3.org/2000/svg" viewBox="0 0 24 24" id="bookmark-empty">
    <path d="M23.0161 9.13667C22.9466 8.94864 22.8185 8.78342 22.6476 8.66143C22.4767 8.53945 22.2706 8.46607 22.0547 8.45036L15.7406 7.99045L13.0083 2.44617C12.9213 2.2676 12.7797 2.11593 12.6008 2.00947C12.4218 1.90301 12.213 1.8463 11.9997 1.84619C11.7863 1.84608 11.5775 1.90258 11.3984 2.00886C11.2193 2.11515 11.0776 2.26667 10.9903 2.44516L8.25802 7.99045L1.94391 8.45036C1.73176 8.46577 1.52895 8.53687 1.35974 8.65517C1.19052 8.77346 1.06207 8.93394 0.989749 9.11741C0.917426 9.30087 0.904296 9.49955 0.951928 9.68968C0.99956 9.8798 1.10594 10.0533 1.25834 10.1895L5.92442 14.3591L4.27418 20.9095C4.22407 21.1078 4.24013 21.3153 4.32028 21.5051C4.40042 21.6949 4.54095 21.8582 4.72363 21.9739C4.9063 22.0896 5.12269 22.1523 5.34472 22.1539C5.56674 22.1554 5.78415 22.0957 5.96873 21.9826L11.9993 18.2973L18.0299 21.9826C18.2186 22.0974 18.441 22.1566 18.6674 22.152C18.8938 22.1475 19.1133 22.0795 19.2963 21.9572C19.4792 21.8349 19.617 21.6642 19.691 21.468C19.7649 21.2718 19.7716 21.0595 19.71 20.8598L17.6843 14.3622L22.7082 10.2179C23.0371 9.94582 23.1578 9.52145 23.0161 9.13667Z" fill="#DFE2E6"></path>
  </symbol>
  <symbol fill="none" xmlns="http://www.w3.org/2000/svg" viewBox="0 0 24 24" id="comment-gray">
    <g clip-path="url(#clip0_326_2940)">
      <path d="M23.0666 3.13824C23.0666 1.91977 22.0808 0.922852 20.8623 0.922852H3.13921C1.92075 0.922852 0.923828 1.91977 0.923828 3.13824V16.4305C0.923828 17.649 1.92075 18.6459 3.13921 18.6459H18.6469L23.0777 23.0767L23.0666 3.13824ZM18.6469 14.2152H5.3546V11.9998H18.6469V14.2152ZM18.6469 10.8921H5.3546V8.6767H18.6469V10.8921ZM18.6469 7.56901H5.3546V5.35362H18.6469V7.56901Z" fill="#797A89"></path>
    </g>
    <defs>
      <clipPath id="clip0_326_2940">
        <rect width="24" height="24" fill="white"></rect>
      </clipPath>
    </defs>
  </symbol>
  <symbol fill="none" xmlns="http://www.w3.org/2000/svg" viewBox="0 0 24 24" id="heart-gray">
    <g clip-path="url(#clip0_326_2939)">
      <path d="M23.5398 8.61029C23.5398 10.3947 22.8547 12.1086 21.6311 13.3765C18.8147 16.2958 16.083 19.34 13.1613 22.1535C12.4916 22.7891 11.4293 22.7659 10.7884 22.1016L2.37107 13.3765C-0.17317 10.7391 -0.17317 6.48146 2.37107 3.84416C4.94032 1.18094 9.1259 1.18094 11.6951 3.84416L12.0011 4.16129L12.3069 3.84434C13.5387 2.56677 15.2164 1.84619 16.969 1.84619C18.7216 1.84619 20.3992 2.5667 21.6311 3.84416C22.8548 5.1121 23.5398 6.82593 23.5398 8.61029Z" fill="#797A89" stroke="#797A89" stroke-width="0.923077" stroke-linejoin="round"></path>
    </g>
    <defs>
      <clipPath id="clip0_326_2939">
        <rect width="24" height="24" fill="white"></rect>
      </clipPath>
    </defs>
  </symbol>
  <symbol fill="none" xmlns="http://www.w3.org/2000/svg" viewBox="0 0 24 24" id="list">
    <path d="M9 6L15.6 12L9 18" stroke="#7C7BFE" stroke-width="0.9" stroke-linecap="round" stroke-linejoin="round"></path>
  </symbol>
  <symbol fill="none" xmlns="http://www.w3.org/2000/svg" viewBox="0 0 24 24" id="about">
    <path fill-rule="evenodd" clip-rule="evenodd" d="M13.5 4.5C13.5 5.32843 12.8284 6 12 6C11.1716 6 10.5 5.32843 10.5 4.5C10.5 3.67157 11.1716 3 12 3C12.8284 3 13.5 3.67157 13.5 4.5ZM13.5 12C13.5 12.8284 12.8284 13.5 12 13.5C11.1716 13.5 10.5 12.8284 10.5 12C10.5 11.1716 11.1716 10.5 12 10.5C12.8284 10.5 13.5 11.1716 13.5 12ZM12 21C12.8284 21 13.5 20.3284 13.5 19.5C13.5 18.6716 12.8284 18 12 18C11.1716 18 10.5 18.6716 10.5 19.5C10.5 20.3284 11.1716 21 12 21Z" fill="#53545C"></path>
  </symbol>
  <symbol fill="none" xmlns="http://www.w3.org/2000/svg" viewBox="0 0 24 24" id="ai">
    <path d="M9 15C8.80222 15 8.60888 15.0586 8.44443 15.1685C8.27998 15.2784 8.15181 15.4346 8.07612 15.6173C8.00043 15.8 7.98063 16.0011 8.01921 16.1951C8.0578 16.3891 8.15304 16.5673 8.29289 16.7071C8.43275 16.847 8.61093 16.9422 8.80491 16.9808C8.99889 17.0194 9.19996 16.9996 9.38268 16.9239C9.56541 16.8482 9.72159 16.72 9.83147 16.5556C9.94135 16.3911 10 16.1978 10 16C10 15.7348 9.89464 15.4804 9.70711 15.2929C9.51957 15.1054 9.26522 15 9 15ZM2 14C1.73478 14 1.48043 14.1054 1.29289 14.2929C1.10536 14.4804 1 14.7348 1 15V17C1 17.2652 1.10536 17.5196 1.29289 17.7071C1.48043 17.8946 1.73478 18 2 18C2.26522 18 2.51957 17.8946 2.70711 17.7071C2.89464 17.5196 3 17.2652 3 17V15C3 14.7348 2.89464 14.4804 2.70711 14.2929C2.51957 14.1054 2.26522 14 2 14ZM22 14C21.7348 14 21.4804 14.1054 21.2929 14.2929C21.1054 14.4804 21 14.7348 21 15V17C21 17.2652 21.1054 17.5196 21.2929 17.7071C21.4804 17.8946 21.7348 18 22 18C22.2652 18 22.5196 17.8946 22.7071 17.7071C22.8946 17.5196 23 17.2652 23 17V15C23 14.7348 22.8946 14.4804 22.7071 14.2929C22.5196 14.1054 22.2652 14 22 14ZM17 7H13V5.72C13.3023 5.54549 13.5536 5.29491 13.7291 4.99317C13.9045 4.69143 13.9979 4.34903 14 4C14 3.46957 13.7893 2.96086 13.4142 2.58579C13.0391 2.21071 12.5304 2 12 2C11.4696 2 10.9609 2.21071 10.5858 2.58579C10.2107 2.96086 10 3.46957 10 4C10.0021 4.34903 10.0955 4.69143 10.2709 4.99317C10.4464 5.29491 10.6977 5.54549 11 5.72V7H7C6.20435 7 5.44129 7.31607 4.87868 7.87868C4.31607 8.44129 4 9.20435 4 10V19C4 19.7956 4.31607 20.5587 4.87868 21.1213C5.44129 21.6839 6.20435 22 7 22H17C17.7956 22 18.5587 21.6839 19.1213 21.1213C19.6839 20.5587 20 19.7956 20 19V10C20 9.20435 19.6839 8.44129 19.1213 7.87868C18.5587 7.31607 17.7956 7 17 7ZM13.72 9L13.22 11H10.78L10.28 9H13.72ZM18 19C18 19.2652 17.8946 19.5196 17.7071 19.7071C17.5196 19.8946 17.2652 20 17 20H7C6.73478 20 6.48043 19.8946 6.29289 19.7071C6.10536 19.5196 6 19.2652 6 19V10C6 9.73478 6.10536 9.48043 6.29289 9.29289C6.48043 9.10536 6.73478 9 7 9H8.22L9 12.24C9.05475 12.4619 9.18385 12.6583 9.36579 12.7966C9.54774 12.9349 9.77157 13.0067 10 13H14C14.2284 13.0067 14.4523 12.9349 14.6342 12.7966C14.8162 12.6583 14.9452 12.4619 15 12.24L15.78 9H17C17.2652 9 17.5196 9.10536 17.7071 9.29289C17.8946 9.48043 18 9.73478 18 10V19ZM15 15C14.8022 15 14.6089 15.0586 14.4444 15.1685C14.28 15.2784 14.1518 15.4346 14.0761 15.6173C14.0004 15.8 13.9806 16.0011 14.0192 16.1951C14.0578 16.3891 14.153 16.5673 14.2929 16.7071C14.4327 16.847 14.6109 16.9422 14.8049 16.9808C14.9989 17.0194 15.2 16.9996 15.3827 16.9239C15.5654 16.8482 15.7216 16.72 15.8315 16.5556C15.9414 16.3911 16 16.1978 16 16C16 15.7348 15.8946 15.4804 15.7071 15.2929C15.5196 15.1054 15.2652 15 15 15Z" fill="#7C7BFE"></path>
  </symbol>
  <symbol fill="none" xmlns="http://www.w3.org/2000/svg" viewBox="0 0 24 24" id="back">
    <path d="M21 12H3.5" stroke="#797A89" stroke-width="2" stroke-linecap="round" stroke-linejoin="round"></path>
    <path d="M10 19L3 12L10 5" stroke="#797A89" stroke-width="2" stroke-linecap="round" stroke-linejoin="round"></path>
  </symbol>
  <symbol fill="none" xmlns="http://www.w3.org/2000/svg" viewBox="0 0 24 24" id="check">
    <rect x="0.8" y="0.8" width="22.4" height="22.4" rx="7.2" fill="#7C7BFE"></rect>
    <rect x="0.8" y="0.8" width="22.4" height="22.4" rx="7.2" stroke="#7C7BFE" stroke-width="1.6"></rect>
    <path d="M5.4668 12.0001L9.82266 16.6501L18.5335 7.3501" stroke="white" stroke-width="1.2" stroke-linecap="round" stroke-linejoin="round"></path>
  </symbol>
  <symbol fill="none" xmlns="http://www.w3.org/2000/svg" viewBox="0 0 24 24" id="check-empty">
    <rect x="0.8" y="0.8" width="22.4" height="22.4" rx="7.2" fill="white"></rect>
    <rect x="0.8" y="0.8" width="22.4" height="22.4" rx="7.2" stroke="#7C7BFE" stroke-width="1.6"></rect>
  </symbol>
  <symbol fill="none" xmlns="http://www.w3.org/2000/svg" viewBox="0 0 24 24" id="close">
    <path d="M6.46967 16.4697C6.17678 16.7626 6.17678 17.2374 6.46967 17.5303C6.76256 17.8232 7.23744 17.8232 7.53033 17.5303L6.46967 16.4697ZM12.5303 12.5303C12.8232 12.2374 12.8232 11.7626 12.5303 11.4697C12.2374 11.1768 11.7626 11.1768 11.4697 11.4697L12.5303 12.5303ZM11.4697 11.4697C11.1768 11.7626 11.1768 12.2374 11.4697 12.5303C11.7626 12.8232 12.2374 12.8232 12.5303 12.5303L11.4697 11.4697ZM17.5303 7.53033C17.8232 7.23744 17.8232 6.76256 17.5303 6.46967C17.2374 6.17678 16.7626 6.17678 16.4697 6.46967L17.5303 7.53033ZM12.5303 11.4697C12.2374 11.1768 11.7626 11.1768 11.4697 11.4697C11.1768 11.7626 11.1768 12.2374 11.4697 12.5303L12.5303 11.4697ZM16.4697 17.5303C16.7626 17.8232 17.2374 17.8232 17.5303 17.5303C17.8232 17.2374 17.8232 16.7626 17.5303 16.4697L16.4697 17.5303ZM11.4697 12.5303C11.7626 12.8232 12.2374 12.8232 12.5303 12.5303C12.8232 12.2374 12.8232 11.7626 12.5303 11.4697L11.4697 12.5303ZM7.53033 6.46967C7.23744 6.17678 6.76256 6.17678 6.46967 6.46967C6.17678 6.76256 6.17678 7.23744 6.46967 7.53033L7.53033 6.46967ZM7.53033 17.5303L12.5303 12.5303L11.4697 11.4697L6.46967 16.4697L7.53033 17.5303ZM12.5303 12.5303L17.5303 7.53033L16.4697 6.46967L11.4697 11.4697L12.5303 12.5303ZM11.4697 12.5303L16.4697 17.5303L17.5303 16.4697L12.5303 11.4697L11.4697 12.5303ZM12.5303 11.4697L7.53033 6.46967L6.46967 7.53033L11.4697 12.5303L12.5303 11.4697Z" fill="#797A89"></path>
  </symbol>
  <symbol fill="none" xmlns="http://www.w3.org/2000/svg" viewBox="0 0 24 24" id="comment-green">
    <g clip-path="url(#clip0_326_2924)">
      <path d="M23.0666 3.13824C23.0666 1.91977 22.0808 0.922852 20.8623 0.922852H3.13921C1.92075 0.922852 0.923828 1.91977 0.923828 3.13824V16.4305C0.923828 17.649 1.92075 18.6459 3.13921 18.6459H18.6469L23.0777 23.0767L23.0666 3.13824ZM18.6469 14.2152H5.3546V11.9998H18.6469V14.2152ZM18.6469 10.8921H5.3546V8.6767H18.6469V10.8921ZM18.6469 7.56901H5.3546V5.35362H18.6469V7.56901Z" fill="#37C6D9"></path>
    </g>
    <defs>
      <clipPath id="clip0_326_2924">
        <rect width="24" height="24" fill="white"></rect>
      </clipPath>
    </defs>
  </symbol>
  <symbol fill="none" xmlns="http://www.w3.org/2000/svg" viewBox="0 0 24 24" id="condition">
    <path fill-rule="evenodd" clip-rule="evenodd" d="M13.1673 21.3332C13.1673 21.9776 12.6449 22.5 12.0005 22.5C11.3561 22.5 10.8338 21.9776 10.8338 21.3332L10.8338 17.3341C10.8338 16.6897 11.3561 16.1673 12.0005 16.1673C12.6449 16.1673 13.1673 16.6897 13.1673 17.3341L13.1673 21.3332ZM13.1673 6.66593C13.1673 7.31031 12.6449 7.83268 12.0005 7.83268C11.3561 7.83268 10.8338 7.31031 10.8338 6.66593L10.8338 2.66678C10.8338 2.0224 11.3561 1.50002 12.0005 1.50002C12.6449 1.50002 13.1673 2.0224 13.1673 2.66678L13.1673 6.66593ZM4.57553 19.4243C5.03118 19.8799 5.76992 19.8799 6.22557 19.4243L9.05339 16.5965C9.50904 16.1408 9.50904 15.4021 9.0534 14.9464C8.59775 14.4908 7.859 14.4908 7.40336 14.9464L4.57553 17.7743C4.11989 18.2299 4.11989 18.9686 4.57553 19.4243ZM14.9469 9.05288C15.4026 9.50853 16.1413 9.50853 16.5969 9.05288L19.4248 6.22506C19.8804 5.76941 19.8804 5.03066 19.4248 4.57502C18.9691 4.11937 18.2304 4.11937 17.7747 4.57502L14.9469 7.40285C14.4913 7.85849 14.4913 8.59724 14.9469 9.05288ZM1.5 11.9994C1.5 12.6438 2.02237 13.1662 2.66675 13.1662H6.6659C7.31028 13.1662 7.83266 12.6438 7.83266 11.9994C7.83266 11.3551 7.31028 10.8327 6.6659 10.8327H2.66675C2.02237 10.8327 1.5 11.3551 1.5 11.9994ZM16.1673 11.9994C16.1673 12.6438 16.6897 13.1662 17.3341 13.1662H21.3332C21.9776 13.1662 22.5 12.6438 22.5 11.9994C22.5 11.3551 21.9776 10.8327 21.3332 10.8327H17.3341C16.6897 10.8327 16.1673 11.3551 16.1673 11.9994ZM19.4255 19.4243C18.9699 19.8799 18.2311 19.8799 17.7755 19.4243L14.9476 16.5965C14.492 16.1408 14.492 15.4021 14.9476 14.9464C15.4033 14.4908 16.142 14.4908 16.5977 14.9464L19.4255 17.7743C19.8812 18.2299 19.8812 18.9686 19.4255 19.4243ZM9.05413 9.05288C8.59848 9.50853 7.85973 9.50853 7.40409 9.05288L4.57626 6.22506C4.12062 5.76941 4.12062 5.03066 4.57626 4.57502C5.03191 4.11937 5.77065 4.11937 6.2263 4.57502L9.05413 7.40284C9.50977 7.85849 9.50977 8.59723 9.05413 9.05288Z" fill="#53545C"></path>
  </symbol>
  <symbol fill="none" xmlns="http://www.w3.org/2000/svg" viewBox="0 0 24 24" id="crown">
    <path fill-rule="evenodd" clip-rule="evenodd" d="M12 3C12.4315 3 12.8278 3.22656 13.0303 3.58902L16.4614 9.73168L20.5337 6.08644C20.8975 5.76074 21.4391 5.69157 21.8804 5.91442C22.3217 6.13728 22.5648 6.60267 22.4849 7.07178L20.2726 20.0677C20.1811 20.6051 19.6933 21 19.1209 21H4.6025C4.0214 21 3.52888 20.5933 3.44737 20.046L1.51158 7.05008C1.44209 6.58355 1.68998 6.12616 2.12982 5.90932C2.56966 5.69249 3.10553 5.7635 3.4663 6.08644L7.53858 9.73168L10.9697 3.58902C11.1722 3.22656 11.5685 3 12 3ZM12 6.47467L8.88217 12.0564C8.71153 12.3619 8.40085 12.5743 8.04198 12.6306C7.68312 12.687 7.31715 12.581 7.05229 12.3439L4.28818 9.86962L5.61553 18.7808H18.128L19.6329 9.94023L16.9477 12.3439C16.6829 12.581 16.3169 12.687 15.958 12.6306C15.5992 12.5743 15.2885 12.3619 15.1178 12.0564L12 6.47467Z" fill="#53545C"></path>
  </symbol>
  <symbol fill="none" xmlns="http://www.w3.org/2000/svg" viewBox="0 0 24 24" id="feedback">
    <path fill-rule="evenodd" clip-rule="evenodd" d="M20.7274 2.30453C19.7471 1.31539 18.1867 1.22761 17.1035 2.10068L5.71129 11.2829C5.41007 11.5257 5.16339 11.8303 4.98759 12.1765L4.25795 13.6133C3.05258 15.9871 5.56949 18.5267 7.92201 17.3104L9.50422 16.4924C9.66629 16.4086 9.81962 16.3087 9.9619 16.194L21.2211 7.11894C22.4894 6.09668 22.5948 4.18875 21.447 3.03059L20.7274 2.30453ZM18.5598 3.94019C18.7145 3.81547 18.9374 3.828 19.0775 3.96931L19.7971 4.69537C19.961 4.86083 19.946 5.13339 19.7648 5.27942L8.5056 14.3545C8.48527 14.3709 8.46337 14.3851 8.44022 14.3971L6.85801 15.2151C6.52193 15.3888 6.16237 15.026 6.33457 14.6869L7.0642 13.2501C7.08932 13.2006 7.12456 13.1571 7.16759 13.1224L18.5598 3.94019ZM2.66667 20.1456C2.02233 20.1456 1.5 20.6727 1.5 21.3228C1.5 21.973 2.02233 22.5 2.66667 22.5H21.3333C21.9777 22.5 22.5 21.973 22.5 21.3228C22.5 20.6727 21.9777 20.1456 21.3333 20.1456H2.66667Z" fill="#53545C"></path>
  </symbol>
  <symbol fill="none" xmlns="http://www.w3.org/2000/svg" viewBox="0 0 24 24" id="heart-empty-gray">
    <path d="M23.5379 8.61029C23.5379 10.3947 22.8527 12.1086 21.6292 13.3765C18.8128 16.2958 16.081 19.34 13.1594 22.1535C12.4897 22.7891 11.4273 22.7659 10.7865 22.1016L2.36912 13.3765C-0.175123 10.7391 -0.175123 6.48146 2.36912 3.84416C4.93837 1.18094 9.12395 1.18094 11.6932 3.84416L11.9992 4.16129L12.3049 3.84434C13.5368 2.56677 15.2145 1.84619 16.9671 1.84619C18.7196 1.84619 20.3972 2.5667 21.6292 3.84416C22.8528 5.1121 23.5379 6.82593 23.5379 8.61029Z" stroke="#797A89" stroke-width="0.865385" stroke-linejoin="round"></path>
  </symbol>
  <symbol fill="none" xmlns="http://www.w3.org/2000/svg" viewBox="0 0 24 24" id="heart-empty-green">
    <path d="M23.5379 8.61029C23.5379 10.3947 22.8527 12.1086 21.6292 13.3765C18.8128 16.2958 16.081 19.34 13.1594 22.1535C12.4897 22.7891 11.4273 22.7659 10.7865 22.1016L2.36912 13.3765C-0.175123 10.7391 -0.175123 6.48146 2.36912 3.84416C4.93837 1.18094 9.12395 1.18094 11.6932 3.84416L11.9992 4.16129L12.3049 3.84434C13.5368 2.56677 15.2145 1.84619 16.9671 1.84619C18.7196 1.84619 20.3972 2.5667 21.6292 3.84416C22.8528 5.1121 23.5379 6.82593 23.5379 8.61029Z" stroke="#37C6D9" stroke-width="0.865385" stroke-linejoin="round"></path>
  </symbol>
  <symbol fill="none" xmlns="http://www.w3.org/2000/svg" viewBox="0 0 24 24" id="heart-green">
    <g clip-path="url(#clip0_326_2920)">
      <path d="M23.5398 8.61029C23.5398 10.3947 22.8547 12.1086 21.6311 13.3765C18.8147 16.2958 16.083 19.34 13.1613 22.1535C12.4916 22.7891 11.4293 22.7659 10.7884 22.1016L2.37107 13.3765C-0.17317 10.7391 -0.17317 6.48146 2.37107 3.84416C4.94032 1.18094 9.1259 1.18094 11.6951 3.84416L12.0011 4.16129L12.3069 3.84434C13.5387 2.56677 15.2164 1.84619 16.969 1.84619C18.7216 1.84619 20.3992 2.5667 21.6311 3.84416C22.8548 5.1121 23.5398 6.82593 23.5398 8.61029Z" fill="#37C6D9" stroke="#37C6D9" stroke-width="0.923077" stroke-linejoin="round"></path>
    </g>
    <defs>
      <clipPath id="clip0_326_2920">
        <rect width="24" height="24" fill="white"></rect>
      </clipPath>
    </defs>
  </symbol>
  <symbol fill="none" xmlns="http://www.w3.org/2000/svg" viewBox="0 0 24 24" id="menu">
    <path fill-rule="evenodd" clip-rule="evenodd" d="M22.4999 3.375C22.4999 3.58211 22.332 3.75 22.1249 3.75L1.875 3.75C1.66789 3.75 1.5 3.58211 1.5 3.375C1.5 3.16789 1.66789 3 1.875 3H22.1249C22.332 3 22.4999 3.16789 22.4999 3.375ZM22.4999 11.2483C22.4999 11.4554 22.332 11.6233 22.1249 11.6233L1.875 11.6233C1.66789 11.6233 1.5 11.4554 1.5 11.2483C1.5 11.0412 1.66789 10.8733 1.875 10.8733L22.1249 10.8733C22.332 10.8733 22.4999 11.0412 22.4999 11.2483ZM22.1249 19.4968C22.332 19.4968 22.4999 19.3289 22.4999 19.1218C22.4999 18.9147 22.332 18.7468 22.1249 18.7468L1.875 18.7468C1.66789 18.7468 1.5 18.9147 1.5 19.1218C1.5 19.3289 1.66789 19.4968 1.875 19.4968L22.1249 19.4968Z" fill="#7C7B7B"></path>
  </symbol>
  <symbol fill="none" xmlns="http://www.w3.org/2000/svg" viewBox="0 0 24 24" id="move">
    <path d="M3 12H20.5" stroke="white" stroke-width="2" stroke-linecap="round" stroke-linejoin="round"></path>
    <path d="M14 19L21 12L14 5" stroke="white" stroke-width="2" stroke-linecap="round" stroke-linejoin="round"></path>
  </symbol>
  <symbol fill="none" xmlns="http://www.w3.org/2000/svg" viewBox="0 0 24 24" id="search">
    <path fill-rule="evenodd" clip-rule="evenodd" d="M17.9348 10.8913C17.9348 14.7813 14.7813 17.9348 10.8913 17.9348C7.0013 17.9348 3.84783 14.7813 3.84783 10.8913C3.84783 7.0013 7.0013 3.84783 10.8913 3.84783C14.7813 3.84783 17.9348 7.0013 17.9348 10.8913ZM16.6501 18.3103C15.0598 19.5465 13.0615 20.2826 10.8913 20.2826C5.70463 20.2826 1.5 16.078 1.5 10.8913C1.5 5.70463 5.70463 1.5 10.8913 1.5C16.078 1.5 20.2826 5.70463 20.2826 10.8913C20.2826 13.0615 19.5465 15.0598 18.3103 16.6501L22.1562 20.496C22.6146 20.9544 22.6146 21.6977 22.1562 22.1562C21.6977 22.6146 20.9544 22.6146 20.496 22.1562L16.6501 18.3103Z" fill="#53545C"></path>
  </symbol>
  <symbol fill="none" xmlns="http://www.w3.org/2000/svg" viewBox="0 0 24 24" id="smile">
    <path fill-rule="evenodd" clip-rule="evenodd" d="M4 12C4 7.58172 7.58172 4 12 4C16.4183 4 20 7.58172 20 12C20 16.4183 16.4183 20 12 20C7.58172 20 4 16.4183 4 12ZM12 2C6.47715 2 2 6.47715 2 12C2 17.5228 6.47715 22 12 22C17.5228 22 22 17.5228 22 12C22 6.47715 17.5228 2 12 2ZM8.5 11C9.32843 11 10 10.3284 10 9.5C10 8.67157 9.32843 8 8.5 8C7.67157 8 7 8.67157 7 9.5C7 10.3284 7.67157 11 8.5 11ZM17 9.5C17 10.3284 16.3284 11 15.5 11C14.6716 11 14 10.3284 14 9.5C14 8.67157 14.6716 8 15.5 8C16.3284 8 17 8.67157 17 9.5ZM7.68377 13.0513C8.20608 12.8772 8.77051 13.1581 8.94704 13.6789L8.95084 13.6894C8.95531 13.7016 8.96355 13.7235 8.97577 13.7537C9.0003 13.8143 9.04038 13.9072 9.09755 14.0215C9.21302 14.2525 9.39186 14.5582 9.64322 14.8598C10.1398 15.4557 10.8811 16 12 16C13.1189 16 13.8602 15.4557 14.3568 14.8598C14.6081 14.5582 14.787 14.2525 14.9024 14.0215C14.9596 13.9072 14.9997 13.8143 15.0242 13.7537C15.0364 13.7235 15.0447 13.7016 15.0492 13.6894L15.053 13.6789C15.2295 13.1581 15.7939 12.8772 16.3162 13.0513C16.8402 13.226 17.1233 13.7923 16.9487 14.3162L16 14C16.9487 14.3162 16.9485 14.3167 16.9484 14.3171L16.9481 14.318L16.9474 14.3201L16.9457 14.3252L16.9411 14.3385C16.9374 14.3488 16.9327 14.3621 16.9269 14.3779C16.9153 14.4097 16.8991 14.4523 16.8781 14.5041C16.8362 14.6076 16.7748 14.7491 16.6913 14.916C16.5255 15.2475 16.2669 15.6918 15.8932 16.1402C15.1398 17.0443 13.8811 18 12 18C10.1189 18 8.86023 17.0443 8.10678 16.1402C7.73314 15.6918 7.47448 15.2475 7.3087 14.916C7.22525 14.7491 7.16377 14.6076 7.12188 14.5041C7.1009 14.4523 7.08473 14.4097 7.07309 14.3779C7.06726 14.3621 7.06256 14.3488 7.05894 14.3385L7.05433 14.3252L7.05263 14.3201L7.05192 14.318L7.05161 14.3171C7.05146 14.3167 7.05132 14.3162 8 14L7.05132 14.3162C6.87667 13.7923 7.15983 13.226 7.68377 13.0513Z" fill="#53545C"></path>
  </symbol>
  <symbol fill="none" xmlns="http://www.w3.org/2000/svg" viewBox="0 0 24 24" id="time">
    <path fill-rule="evenodd" clip-rule="evenodd" d="M12 22.25C17.6609 22.25 22.25 17.6609 22.25 12C22.25 6.33908 17.6609 1.75 12 1.75C6.33908 1.75 1.75 6.33908 1.75 12C1.75 17.6609 6.33908 22.25 12 22.25ZM20 12C20 16.4183 16.4183 20 12 20C7.58172 20 4 16.4183 4 12C4 7.58172 7.58172 4 12 4C16.4183 4 20 7.58172 20 12ZM13.125 7C13.125 6.37868 12.6213 5.875 12 5.875C11.3787 5.875 10.875 6.37868 10.875 7V11.3787C10.875 12.0748 11.1516 12.7425 11.6438 13.2348L13.2045 14.7955C13.6438 15.2348 14.3561 15.2348 14.7955 14.7955C15.2348 14.3562 15.2348 13.6439 14.7955 13.2045L13.2348 11.6438C13.1645 11.5735 13.125 11.4781 13.125 11.3787V7Z" fill="#53545C"></path>
  </symbol>
  <symbol fill="none" xmlns="http://www.w3.org/2000/svg" viewBox="0 0 24 24" id="algorithm">
    <circle cx="12" cy="12" r="12" fill="#F6F8FD"></circle>
    <path fill-rule="evenodd" clip-rule="evenodd" d="M9.84874 5.9209H14.2655C14.3114 5.9209 14.357 5.92369 14.4023 5.92926C16.2002 6.04871 17.5963 7.46613 17.6023 9.17826V14.0643C17.5957 15.8671 16.0536 17.3243 14.1559 17.3209H9.84874C7.95075 17.3243 6.40852 15.8666 6.40234 14.0635V9.17826C6.40852 7.37518 7.95075 5.91754 9.84874 5.9209Z" stroke="#6356F8" stroke-width="0.75" stroke-linecap="round" stroke-linejoin="round"></path>
    <path d="M17.6023 9.5532C17.8095 9.5532 17.9773 9.38531 17.9773 9.1782C17.9773 8.97109 17.8095 8.8032 17.6023 8.8032V9.5532ZM14.4023 9.1782H14.0273C14.0273 9.38531 14.1952 9.5532 14.4023 9.5532V9.1782ZM14.7773 5.9292C14.7773 5.72209 14.6095 5.5542 14.4023 5.5542C14.1952 5.5542 14.0273 5.72209 14.0273 5.9292H14.7773ZM13.6027 12.3758C13.8098 12.3758 13.9777 12.208 13.9777 12.0008C13.9777 11.7937 13.8098 11.6258 13.6027 11.6258V12.3758ZM8.80273 11.6258C8.59563 11.6258 8.42773 11.7937 8.42773 12.0008C8.42773 12.208 8.59563 12.3758 8.80273 12.3758V11.6258ZM11.2027 10.0958C11.4098 10.0958 11.5777 9.92793 11.5777 9.72082C11.5777 9.51371 11.4098 9.34582 11.2027 9.34582V10.0958ZM8.80273 9.34582C8.59563 9.34582 8.42773 9.51371 8.42773 9.72082C8.42773 9.92793 8.59563 10.0958 8.80273 10.0958V9.34582ZM14.4027 14.6559C14.6098 14.6559 14.7777 14.488 14.7777 14.2809C14.7777 14.0738 14.6098 13.9059 14.4027 13.9059V14.6559ZM8.80273 13.9059C8.59563 13.9059 8.42773 14.0738 8.42773 14.2809C8.42773 14.488 8.59563 14.6559 8.80273 14.6559V13.9059ZM17.6023 8.8032H14.4023V9.5532H17.6023V8.8032ZM14.7773 9.1782V5.9292H14.0273V9.1782H14.7773ZM13.6027 11.6258H8.80273V12.3758H13.6027V11.6258ZM11.2027 9.34582H8.80273V10.0958H11.2027V9.34582ZM14.4027 13.9059H8.80273V14.6559H14.4027V13.9059Z" fill="#6356F8"></path>
  </symbol>
  <symbol fill="none" xmlns="http://www.w3.org/2000/svg" viewBox="0 0 24 24" id="computerstructure">
    <circle cx="12" cy="12" r="12" fill="#F6F8FD"></circle>
    <path d="M8.07617 8.18054C8.07617 7.97343 7.90828 7.80554 7.70117 7.80554C7.49407 7.80554 7.32617 7.97343 7.32617 8.18054H8.07617ZM7.70117 14.6132H7.32616L7.32618 14.6157L7.70117 14.6132ZM8.01626 15.3049L7.76337 15.5818L7.76337 15.5818L8.01626 15.3049ZM8.76717 15.5867L8.76717 15.2117L8.7642 15.2118L8.76717 15.5867ZM16.9934 15.5867L16.9964 15.2117H16.9934V15.5867ZM17.7443 15.3049L17.9972 15.5818L17.9972 15.5818L17.7443 15.3049ZM18.0594 14.6132L18.4344 14.6157V14.6132H18.0594ZM18.0594 9.15182L18.4344 9.15182L18.4344 9.14932L18.0594 9.15182ZM17.7443 8.46007L17.4914 8.73697L17.4914 8.73697L17.7443 8.46007ZM16.9934 8.17826V8.55327L16.9964 8.55325L16.9934 8.17826ZM13.228 7.80326C13.0209 7.80326 12.853 7.97115 12.853 8.17826C12.853 8.38537 13.0209 8.55326 13.228 8.55326V7.80326ZM7.32715 8.1782C7.32715 8.38531 7.49504 8.5532 7.70215 8.5532C7.90926 8.5532 8.07715 8.38531 8.07715 8.1782H7.32715ZM7.70215 7.69332L7.32715 7.69082V7.69332H7.70215ZM8.01636 7.00239L8.26957 7.279L8.26957 7.279L8.01636 7.00239ZM8.76569 6.71976L8.76352 7.09476H8.76569V6.71976ZM12.1638 6.71976L12.1638 7.09477L12.1667 7.09475L12.1638 6.71976ZM12.9147 7.00158L13.1676 6.72468L13.1676 6.72468L12.9147 7.00158ZM13.2298 7.69332L13.6048 7.69332L13.6048 7.69083L13.2298 7.69332ZM12.8548 8.18048C12.8548 8.38759 13.0227 8.55548 13.2298 8.55548C13.4369 8.55548 13.6048 8.38759 13.6048 8.18048H12.8548ZM7.7041 7.80529C7.49699 7.80529 7.3291 7.97319 7.3291 8.18029C7.3291 8.3874 7.49699 8.55529 7.7041 8.55529V7.80529ZM13.2284 8.55529C13.4355 8.55529 13.6034 8.3874 13.6034 8.18029C13.6034 7.97319 13.4355 7.80529 13.2284 7.80529V8.55529ZM16.4931 15.5866C16.4931 15.3795 16.3252 15.2116 16.1181 15.2116C15.911 15.2116 15.7431 15.3795 15.7431 15.5866H16.4931ZM16.1181 16.3466L15.743 16.3466L15.7431 16.3525L16.1181 16.3466ZM15.8127 17.0578L16.0712 17.3294L16.0712 17.3294L15.8127 17.0578ZM15.0537 17.3597V17.7347L15.0579 17.7346L15.0537 17.3597ZM6.82584 17.3597L6.82216 17.7347H6.82584V17.3597ZM6.06699 17.0594L5.80907 17.3316L5.80907 17.3316L6.06699 17.0594ZM5.75984 16.3496L6.13484 16.3543V16.3496H5.75984ZM5.75984 10.6853L6.13487 10.6853L6.13481 10.6807L5.75984 10.6853ZM6.06699 9.97556L5.80907 9.70335L5.80907 9.70335L6.06699 9.97556ZM6.82584 9.67529L6.82584 9.30027L6.82216 9.30031L6.82584 9.67529ZM7.7016 10.0503C7.9087 10.0503 8.0766 9.8824 8.0766 9.67529C8.0766 9.46819 7.9087 9.30029 7.7016 9.30029V10.0503ZM7.32617 8.18054V14.6132H8.07617V8.18054H7.32617ZM7.32618 14.6157C7.32864 14.9851 7.48978 15.332 7.76337 15.5818L8.26914 15.028C8.14275 14.9126 8.07717 14.7617 8.07616 14.6107L7.32618 14.6157ZM7.76337 15.5818C8.03599 15.8308 8.39861 15.9647 8.77014 15.9617L8.7642 15.2118C8.57422 15.2133 8.39649 15.1443 8.26914 15.028L7.76337 15.5818ZM8.76717 15.9617H16.9934V15.2117H8.76717V15.9617ZM16.9904 15.9617C17.362 15.9647 17.7246 15.8308 17.9972 15.5818L17.4914 15.028C17.3641 15.1443 17.1864 15.2133 16.9964 15.2118L16.9904 15.9617ZM17.9972 15.5818C18.2708 15.332 18.4319 14.9851 18.4344 14.6157L17.6844 14.6107C17.6834 14.7617 17.6178 14.9126 17.4914 15.028L17.9972 15.5818ZM18.4344 14.6132V9.15182H17.6844V14.6132H18.4344ZM18.4344 9.14932C18.4319 8.7799 18.2708 8.43303 17.9972 8.18317L17.4914 8.73697C17.6178 8.8524 17.6834 9.0033 17.6844 9.15432L18.4344 9.14932ZM17.9972 8.18317C17.7246 7.93419 17.362 7.80033 16.9904 7.80327L16.9964 8.55325C17.1864 8.55174 17.3641 8.62066 17.4914 8.73697L17.9972 8.18317ZM16.9934 7.80326H13.228V8.55326H16.9934V7.80326ZM8.07715 8.1782V7.69332H7.32715V8.1782H8.07715ZM8.07714 7.69583C8.07815 7.54504 8.14354 7.39436 8.26957 7.279L7.76316 6.72578C7.49028 6.97557 7.32962 7.32197 7.32716 7.69082L8.07714 7.69583ZM8.26957 7.279C8.39656 7.16275 8.57384 7.09366 8.76352 7.09476L8.76785 6.34477C8.39687 6.34263 8.03508 6.47687 7.76316 6.72578L8.26957 7.279ZM8.76569 7.09476H12.1638V6.34476H8.76569V7.09476ZM12.1667 7.09475C12.3567 7.09324 12.5344 7.16217 12.6618 7.27848L13.1676 6.72468C12.8949 6.4757 12.5323 6.34183 12.1608 6.34477L12.1667 7.09475ZM12.6618 7.27848C12.7882 7.3939 12.8538 7.54481 12.8548 7.69582L13.6048 7.69083C13.6023 7.32141 13.4412 6.97454 13.1676 6.72468L12.6618 7.27848ZM12.8548 7.69332V8.18048H13.6048V7.69332H12.8548ZM7.7041 8.55529H13.2284V7.80529H7.7041V8.55529ZM15.7431 15.5866V16.3466H16.4931V15.5866H15.7431ZM15.7431 16.3525C15.7456 16.5085 15.6813 16.6651 15.5541 16.7861L16.0712 17.3294C16.3434 17.0703 16.4989 16.7152 16.493 16.3407L15.7431 16.3525ZM15.5541 16.7861C15.426 16.9081 15.2449 16.9825 15.0495 16.9847L15.0579 17.7346C15.4349 17.7304 15.8 17.5875 16.0712 17.3294L15.5541 16.7861ZM15.0537 16.9847H6.82584V17.7347H15.0537V16.9847ZM6.82952 16.9847C6.63431 16.9828 6.45329 16.9088 6.32492 16.7872L5.80907 17.3316C6.08058 17.5889 6.44554 17.7309 6.82216 17.7346L6.82952 16.9847ZM6.32492 16.7872C6.19752 16.6665 6.13288 16.5101 6.13481 16.3543L5.38487 16.345C5.38023 16.7191 5.53659 17.0734 5.80907 17.3316L6.32492 16.7872ZM6.13484 16.3496V10.6853H5.38484V16.3496H6.13484ZM6.13481 10.6807C6.13288 10.5248 6.19752 10.3685 6.32492 10.2478L5.80907 9.70335C5.53659 9.96152 5.38023 10.3159 5.38487 10.69L6.13481 10.6807ZM6.32492 10.2478C6.45329 10.1261 6.63431 10.0522 6.82952 10.0503L6.82216 9.30031C6.44554 9.30401 6.08058 9.44609 5.80907 9.70335L6.32492 10.2478ZM6.82584 10.0503H7.7016V9.30029H6.82584V10.0503Z" fill="#6356F8"></path>
  </symbol>
  <symbol fill="none" xmlns="http://www.w3.org/2000/svg" viewBox="0 0 24 24" id="database">
    <circle cx="12" cy="12" r="12" fill="#F6F8FD"></circle>
    <path fill-rule="evenodd" clip-rule="evenodd" d="M6.24023 10.2666V8.49281C6.24023 7.51356 7.07585 6.71973 8.10663 6.71973H15.573C16.0682 6.71953 16.5431 6.90624 16.8933 7.23878C17.2435 7.57132 17.4402 8.02243 17.4402 8.49281V10.2666H6.24023Z" stroke="#6356F8" stroke-width="0.75" stroke-linecap="round" stroke-linejoin="round"></path>
    <path d="M6.61523 10.2666C6.61523 10.0595 6.44734 9.8916 6.24023 9.8916C6.03313 9.8916 5.86523 10.0595 5.86523 10.2666H6.61523ZM17.8152 14.6997C17.8152 14.4926 17.6473 14.3247 17.4402 14.3247C17.2331 14.3247 17.0652 14.4926 17.0652 14.6997H17.8152ZM17.816 10.2666C17.816 10.0595 17.6481 9.8916 17.441 9.8916C17.2339 9.8916 17.066 10.0595 17.066 10.2666H17.816ZM17.066 14.6997C17.066 14.9068 17.2339 15.0747 17.441 15.0747C17.6481 15.0747 17.816 14.9068 17.816 14.6997H17.066ZM17.4398 15.0743C17.647 15.0743 17.8148 14.9064 17.8148 14.6993C17.8148 14.4922 17.647 14.3243 17.4398 14.3243V15.0743ZM11.8398 14.3243C11.6327 14.3243 11.4648 14.4922 11.4648 14.6993C11.4648 14.9064 11.6327 15.0743 11.8398 15.0743V14.3243ZM11.4654 10.2666C11.4654 10.4738 11.6333 10.6416 11.8404 10.6416C12.0475 10.6416 12.2154 10.4738 12.2154 10.2666H11.4654ZM12.2154 6.71973C12.2154 6.51262 12.0475 6.34473 11.8404 6.34473C11.6333 6.34473 11.4654 6.51262 11.4654 6.71973H12.2154ZM5.86523 10.2666V14.6997H6.61523V10.2666H5.86523ZM5.86523 14.6997C5.86523 16.3938 7.30509 17.7347 9.04023 17.7347V16.9847C7.68259 16.9847 6.61523 15.9438 6.61523 14.6997H5.86523ZM9.04023 17.7347H14.6402V16.9847H9.04023V17.7347ZM14.6402 17.7347C16.3754 17.7347 17.8152 16.3938 17.8152 14.6997H17.0652C17.0652 15.9438 15.9979 16.9847 14.6402 16.9847V17.7347ZM17.066 10.2666V14.6997H17.816V10.2666H17.066ZM17.4398 14.3243H11.8398V15.0743H17.4398V14.3243ZM12.2154 10.2666V6.71973H11.4654V10.2666H12.2154Z" fill="#6356F8"></path>
  </symbol>
  <symbol fill="none" xmlns="http://www.w3.org/2000/svg" viewBox="0 0 24 24" id="datastructure">
    <circle cx="12" cy="12" r="12" fill="#F6F8FD"></circle>
    <path fill-rule="evenodd" clip-rule="evenodd" d="M15.0399 11.9997L12.1699 13.7728V17.3197L17.9099 13.7728V10.2266L12.1699 6.67969V10.2266L15.0399 11.9997Z" stroke="#6356F8" stroke-width="0.75" stroke-linecap="round" stroke-linejoin="round"></path>
    <path d="M6.62889 9.90753C6.4527 9.79868 6.22162 9.85327 6.11277 10.0295C6.00392 10.2057 6.05851 10.4367 6.2347 10.5456L6.62889 9.90753ZM11.9747 14.0918C12.1509 14.2006 12.382 14.146 12.4908 13.9698C12.5997 13.7936 12.5451 13.5625 12.3689 13.4537L11.9747 14.0918ZM6.80664 10.2266C6.80664 10.0195 6.63875 9.85156 6.43164 9.85156C6.22453 9.85156 6.05664 10.0195 6.05664 10.2266H6.80664ZM6.05664 13.7727C6.05664 13.9798 6.22453 14.1477 6.43164 14.1477C6.63875 14.1477 6.80664 13.9798 6.80664 13.7727H6.05664ZM6.23467 9.9076C6.05849 10.0165 6.00392 10.2475 6.11279 10.4237C6.22166 10.5999 6.45274 10.6545 6.62892 10.5456L6.23467 9.9076ZM12.3689 6.9987C12.5451 6.88983 12.5997 6.65875 12.4908 6.48256C12.3819 6.30638 12.1509 6.25181 11.9747 6.36068L12.3689 6.9987ZM12.3689 10.5456C12.5451 10.4367 12.5997 10.2057 12.4908 10.0295C12.382 9.85327 12.1509 9.79868 11.9747 9.90753L12.3689 10.5456ZM6.2347 13.4537C6.05851 13.5625 6.00392 13.7936 6.11277 13.9698C6.22162 14.146 6.4527 14.2006 6.62889 14.0918L6.2347 13.4537ZM6.62892 13.4537C6.45274 13.3448 6.22166 13.3994 6.11279 13.5756C6.00392 13.7518 6.05849 13.9828 6.23467 14.0917L6.62892 13.4537ZM11.9747 17.6386C12.1509 17.7475 12.3819 17.6929 12.4908 17.5168C12.5997 17.3406 12.5451 17.1095 12.3689 17.0006L11.9747 17.6386ZM18.1092 10.5456C18.2854 10.4367 18.34 10.2057 18.2312 10.0295C18.1223 9.85327 17.8912 9.79868 17.7151 9.90753L18.1092 10.5456ZM15.0421 11.9996L14.8451 11.6806C14.7345 11.7489 14.6671 11.8697 14.6671 11.9996C14.6671 12.1296 14.7345 12.2503 14.8451 12.3187L15.0421 11.9996ZM17.7151 14.0918C17.8912 14.2006 18.1223 14.146 18.2312 13.9698C18.34 13.7936 18.2854 13.5625 18.1092 13.4537L17.7151 14.0918ZM6.2347 10.5456L11.9747 14.0918L12.3689 13.4537L6.62889 9.90753L6.2347 10.5456ZM6.05664 10.2266V13.7727H6.80664V10.2266H6.05664ZM6.62892 10.5456L12.3689 6.9987L11.9747 6.36068L6.23467 9.9076L6.62892 10.5456ZM11.9747 9.90753L6.2347 13.4537L6.62889 14.0918L12.3689 10.5456L11.9747 9.90753ZM6.23467 14.0917L11.9747 17.6386L12.3689 17.0006L6.62892 13.4537L6.23467 14.0917ZM17.7151 9.90753L14.8451 11.6806L15.2392 12.3187L18.1092 10.5456L17.7151 9.90753ZM14.8451 12.3187L17.7151 14.0918L18.1092 13.4537L15.2392 11.6806L14.8451 12.3187Z" fill="#6356F8"></path>
  </symbol>
  <symbol fill="none" xmlns="http://www.w3.org/2000/svg" viewBox="0 0 24 24" id="game-check-mine">
    <path d="M12 0C5.376 0 0 5.376 0 12C0 18.624 5.376 24 12 24C18.624 24 24 18.624 24 12C24 5.376 18.624 0 12 0ZM9.6 18L3.6 12L5.292 10.308L9.6 14.604L18.708 5.496L20.4 7.2L9.6 18Z" fill="#FFCC00"></path>
  </symbol>
  <symbol fill="none" xmlns="http://www.w3.org/2000/svg" viewBox="0 0 24 24" id="game-check-yours">
    <path d="M12 0C5.376 0 0 5.376 0 12C0 18.624 5.376 24 12 24C18.624 24 24 18.624 24 12C24 5.376 18.624 0 12 0ZM9.6 18L3.6 12L5.292 10.308L9.6 14.604L18.708 5.496L20.4 7.2L9.6 18Z" fill="#E63946"></path>
  </symbol>
  <symbol fill="none" xmlns="http://www.w3.org/2000/svg" viewBox="0 0 24 24" id="game-me">
    <rect width="24" height="24" rx="12" fill="#FFCC00"></rect>
    <path d="M12.57 8.48V15.5H10.86V11.29L9.29 15.5H7.91L6.33 11.28V15.5H4.62V8.48H6.64L8.61 13.34L10.56 8.48H12.57ZM19.0647 12.62C19.0647 12.78 19.0547 12.9467 19.0347 13.12H15.1647C15.1914 13.4667 15.3014 13.7333 15.4947 13.92C15.6947 14.1 15.938 14.19 16.2247 14.19C16.6514 14.19 16.948 14.01 17.1147 13.65H18.9347C18.8414 14.0167 18.6714 14.3467 18.4247 14.64C18.1847 14.9333 17.8814 15.1633 17.5147 15.33C17.148 15.4967 16.738 15.58 16.2847 15.58C15.738 15.58 15.2514 15.4633 14.8247 15.23C14.398 14.9967 14.0647 14.6633 13.8247 14.23C13.5847 13.7967 13.4647 13.29 13.4647 12.71C13.4647 12.13 13.5814 11.6233 13.8147 11.19C14.0547 10.7567 14.388 10.4233 14.8147 10.19C15.2414 9.95667 15.7314 9.84 16.2847 9.84C16.8247 9.84 17.3047 9.95333 17.7247 10.18C18.1447 10.4067 18.4714 10.73 18.7047 11.15C18.9447 11.57 19.0647 12.06 19.0647 12.62ZM17.3147 12.17C17.3147 11.8767 17.2147 11.6433 17.0147 11.47C16.8147 11.2967 16.5647 11.21 16.2647 11.21C15.978 11.21 15.7347 11.2933 15.5347 11.46C15.3414 11.6267 15.2214 11.8633 15.1747 12.17H17.3147Z" fill="white"></path>
  </symbol>
  <symbol fill="none" xmlns="http://www.w3.org/2000/svg" viewBox="0 0 24 24" id="network">
    <circle cx="12" cy="12" r="12" fill="#F6F8FD"></circle>
    <path fill-rule="evenodd" clip-rule="evenodd" d="M10.6895 10.8574C10.6895 10.2043 11.2607 9.6748 11.9654 9.6748C12.67 9.6748 13.2413 10.2043 13.2413 10.8574C13.2413 11.5105 12.67 12.0399 11.9654 12.0399C11.627 12.0399 11.3024 11.9153 11.0632 11.6936C10.8239 11.4718 10.6895 11.171 10.6895 10.8574V10.8574Z" stroke="#6356F8" stroke-width="0.75" stroke-linecap="round" stroke-linejoin="round"></path>
    <path fill-rule="evenodd" clip-rule="evenodd" d="M15.0479 16.5281L12.6183 14.0155C12.4509 13.8463 12.2145 13.75 11.9668 13.75C11.7191 13.75 11.4827 13.8463 11.3153 14.0155L8.88482 16.5281C8.67859 16.7525 8.63679 17.0693 8.77859 17.3332C8.92039 17.597 9.21842 17.7569 9.5359 17.7395H14.3969C14.7143 17.7569 15.0124 17.597 15.1542 17.3332C15.296 17.0693 15.2542 16.7525 15.0479 16.5281V16.5281Z" stroke="#6356F8" stroke-width="0.75" stroke-linecap="round" stroke-linejoin="round"></path>
    <path d="M9.17247 13.5089C9.33097 13.6422 9.56753 13.6217 9.70083 13.4632C9.83413 13.3047 9.81369 13.0681 9.65518 12.9349L9.17247 13.5089ZM9.65518 8.18886C9.81369 8.05556 9.83413 7.81901 9.70083 7.6605C9.56753 7.50199 9.33097 7.48155 9.17247 7.61485L9.65518 8.18886ZM14.2743 12.9349C14.1158 13.0681 14.0953 13.3047 14.2286 13.4632C14.3619 13.6217 14.5985 13.6422 14.757 13.5089L14.2743 12.9349ZM14.757 7.61485C14.5985 7.48155 14.3619 7.50199 14.2286 7.6605C14.0953 7.81901 14.1158 8.05556 14.2743 8.18886L14.757 7.61485ZM16.1258 14.1851C16.0045 14.3529 16.0421 14.5873 16.2099 14.7087C16.3777 14.8301 16.6122 14.7924 16.7335 14.6246L16.1258 14.1851ZM16.7335 6.49995C16.6122 6.33214 16.3777 6.2945 16.2099 6.41588C16.0421 6.53725 16.0045 6.77169 16.1258 6.9395L16.7335 6.49995ZM7.19717 14.6238C7.31854 14.7917 7.55297 14.8293 7.72079 14.708C7.88861 14.5866 7.92627 14.3522 7.8049 14.1843L7.19717 14.6238ZM7.8049 6.93948C7.92627 6.77166 7.88861 6.53723 7.72079 6.41586C7.55297 6.2945 7.31854 6.33215 7.19717 6.49997L7.8049 6.93948ZM9.65518 12.9349C8.92606 12.3217 8.51758 11.4588 8.51758 10.5619H7.76758C7.76758 11.6912 8.28245 12.7604 9.17247 13.5089L9.65518 12.9349ZM8.51758 10.5619C8.51758 9.66488 8.92606 8.80201 9.65518 8.18886L9.17247 7.61485C8.28245 8.36331 7.76758 9.43252 7.76758 10.5619H8.51758ZM14.757 13.5089C15.647 12.7604 16.1619 11.6912 16.1619 10.5619H15.4119C15.4119 11.4588 15.0034 12.3217 14.2743 12.9349L14.757 13.5089ZM16.1619 10.5619C16.1619 9.43252 15.647 8.36331 14.757 7.61485L14.2743 8.18886C15.0034 8.80201 15.4119 9.66488 15.4119 10.5619H16.1619ZM16.7335 14.6246C18.5098 12.1688 18.5098 8.95581 16.7335 6.49995L16.1258 6.9395C17.7124 9.13303 17.7124 11.9915 16.1258 14.1851L16.7335 14.6246ZM7.8049 14.1843C6.21868 11.991 6.21868 9.13285 7.8049 6.93948L7.19717 6.49997C5.42125 8.95565 5.42125 12.1682 7.19717 14.6238L7.8049 14.1843Z" fill="#6356F8"></path>
  </symbol>
  <symbol fill="none" xmlns="http://www.w3.org/2000/svg" viewBox="0 0 24 24" id="os">
    <circle cx="12" cy="12" r="12" fill="#F6F8FD"></circle>
    <path fill-rule="evenodd" clip-rule="evenodd" d="M9.86299 10.9195H7.53747C7.19625 10.9168 6.86787 11.0431 6.62459 11.2707C6.38131 11.4984 6.24305 11.8086 6.24023 12.1332V16.7266C6.24655 17.4022 6.82722 17.9451 7.53747 17.9395H9.86299C10.2042 17.9422 10.5326 17.8158 10.7759 17.5882C11.0192 17.3606 11.1574 17.0504 11.1602 16.7258V12.1332C11.1574 11.8086 11.0192 11.4984 10.7759 11.2707C10.5326 11.0431 10.2042 10.9168 9.86299 10.9195Z" stroke="#6356F8" stroke-width="0.75" stroke-linecap="round" stroke-linejoin="round"></path>
    <path fill-rule="evenodd" clip-rule="evenodd" d="M9.86299 6.23973H7.53747C6.8415 6.22137 6.26122 6.74229 6.24023 7.40427V8.19519C6.26122 8.85716 6.8415 9.37809 7.53747 9.35973H9.86299C10.559 9.37809 11.1393 8.85716 11.1602 8.19519V7.40427C11.1393 6.74229 10.559 6.22137 9.86299 6.23973Z" stroke="#6356F8" stroke-width="0.75" stroke-linecap="round" stroke-linejoin="round"></path>
    <path fill-rule="evenodd" clip-rule="evenodd" d="M14.098 13.2598H16.4227C16.7641 13.2627 17.0927 13.1364 17.3361 12.9088C17.5796 12.6812 17.718 12.3708 17.7208 12.0461V7.45347C17.718 7.12889 17.5797 6.81867 17.3364 6.59105C17.0931 6.36344 16.7648 6.23709 16.4235 6.23979H14.098C13.7568 6.23709 13.4284 6.36344 13.1851 6.59105C12.9419 6.81867 12.8036 7.12889 12.8008 7.45347V12.0461C12.8036 12.3707 12.9419 12.6809 13.1851 12.9085C13.4284 13.1361 13.7568 13.2625 14.098 13.2598Z" stroke="#6356F8" stroke-width="0.75" stroke-linecap="round" stroke-linejoin="round"></path>
    <path fill-rule="evenodd" clip-rule="evenodd" d="M14.098 17.9398H16.4227C17.119 17.9586 17.6998 17.4376 17.7208 16.7753V15.9843C17.6998 15.3224 17.1195 14.8014 16.4235 14.8198H14.098C13.4021 14.8014 12.8218 15.3224 12.8008 15.9843V16.7745C12.8213 17.4368 13.4017 17.9582 14.098 17.9398Z" stroke="#6356F8" stroke-width="0.75" stroke-linecap="round" stroke-linejoin="round"></path>
  </symbol>
  <symbol fill="none" xmlns="http://www.w3.org/2000/svg" viewBox="0 0 24 24" id="problem">
    <path fill-rule="evenodd" clip-rule="evenodd" d="M3.97137 2C2.88261 2 2 2.89543 2 4V20C2 21.1046 2.88261 22 3.97137 22H19.7423C20.8311 22 21.7137 21.1046 21.7137 20V16C21.7137 15.4477 21.2724 15 20.728 15C20.1836 15 19.7423 15.4477 19.7423 16V20H3.97137V4H11.8569C12.4012 4 12.8425 3.55228 12.8425 3C12.8425 2.44772 12.4012 2 11.8569 2H3.97137ZM19.8089 2.88379C19.043 2.2252 17.9116 2.25572 17.1814 2.95468L7.34882 12.3657C7.10807 12.5961 6.92839 12.8843 6.82633 13.2037L6.10534 15.4602C5.57719 17.1132 7.23502 18.6161 8.79487 17.8984L11.1068 16.8347C11.305 16.7434 11.487 16.6195 11.6454 16.468L21.3814 7.14935C22.2365 6.33095 22.2 4.94006 21.3033 4.16893L19.8089 2.88379ZM18.5342 4.40945L20.0286 5.69458L10.2926 15.0132L7.98064 16.0769L8.70163 13.8204L18.5342 4.40945Z" fill="#53545C"></path>
  </symbol>
  <symbol fill="none" xmlns="http://www.w3.org/2000/svg" viewBox="0 0 24 24" id="score">
    <path fill-rule="evenodd" clip-rule="evenodd" d="M7 3C5.89543 3 5 3.89543 5 5V9.99865C5 13.5259 7.60831 16.4439 11.0013 16.9291V19H6.85734C6.30505 19 5.85734 19.4477 5.85734 20C5.85734 20.5523 6.30505 21 6.85734 21H17.1454C17.6976 21 18.1454 20.5523 18.1454 20C18.1454 19.4477 17.6976 19 17.1454 19H13.0013V16.9291C16.3944 16.4439 19.0027 13.5259 19.0027 9.99865V5C19.0027 3.89543 18.1073 3 17.0027 3H7ZM7 5L17.0027 5V9.99865C17.0027 12.7608 14.7635 15 12.0013 15C9.23918 15 7 12.7608 7 9.99865V5ZM3.76708 6.64159L3.76261 6.64704L3.73849 6.67691C3.71641 6.70457 3.68329 6.74678 3.64283 6.80054C3.56113 6.90913 3.45352 7.05956 3.34762 7.22874C3.24007 7.40053 3.14502 7.57468 3.07947 7.73216C3.04716 7.80978 3.0259 7.87417 3.01329 7.92476C3.00058 7.97577 3.00001 7.99945 3 8.00003C3.00001 8.00061 3.00058 8.02431 3.01329 8.07531C3.0259 8.1259 3.04716 8.1903 3.07947 8.26791C3.14502 8.4254 3.24007 8.59954 3.34762 8.77134C3.45352 8.94051 3.56113 9.09095 3.64283 9.19953C3.68329 9.2533 3.71641 9.29551 3.73849 9.32316L3.76261 9.35304L3.76688 9.35825C4.12111 9.78179 4.06525 10.4125 3.64179 10.7669C3.21825 11.1214 2.58757 11.0654 2.23312 10.6418L3 10C2.23312 10.6418 2.23323 10.642 2.23312 10.6418L2.2321 10.6406L2.23071 10.6389L2.22685 10.6343L2.21493 10.6198C2.20519 10.6079 2.1919 10.5915 2.17557 10.5711C2.14297 10.5302 2.09796 10.4728 2.04467 10.402C1.93887 10.2614 1.79648 10.0627 1.65238 9.83255C1.50993 9.60498 1.35498 9.32944 1.23303 9.03645C1.11605 8.75539 1 8.3896 1 8.00004C1 7.61047 1.11605 7.24468 1.23303 6.96362C1.35498 6.67063 1.50993 6.39509 1.65238 6.16752C1.79648 5.93733 1.93887 5.73872 2.04467 5.5981C2.09796 5.52727 2.14297 5.46983 2.17557 5.429C2.1919 5.40855 2.20519 5.39217 2.21493 5.38027L2.22685 5.36579L2.23071 5.36113L2.2321 5.35947L2.2329 5.35851L2.98788 5.9899C2.23312 5.35825 2.23301 5.35838 2.2329 5.35851C2.58735 4.93497 3.21825 4.87871 3.64179 5.23316C4.06484 5.5872 4.12093 6.21718 3.76782 6.6407L3.76708 6.64159ZM20.2374 6.64704L20.2329 6.64159C19.879 6.21806 19.9349 5.58745 20.3582 5.23316C20.7817 4.87871 21.4127 4.93497 21.7671 5.35851C21.767 5.35838 21.7669 5.35825 21.0121 5.9899L21.7671 5.35851L21.7679 5.35947L21.7693 5.36113L21.7731 5.36579L21.7851 5.38027C21.7948 5.39217 21.8081 5.40855 21.8244 5.429C21.857 5.46983 21.902 5.52727 21.9553 5.5981C22.0611 5.73872 22.2035 5.93733 22.3476 6.16752C22.4901 6.39509 22.645 6.67063 22.767 6.96362C22.884 7.24468 23 7.61047 23 8.00004C23 8.3896 22.884 8.75539 22.767 9.03645C22.645 9.32944 22.4901 9.60498 22.3476 9.83255C22.2035 10.0627 22.0611 10.2614 21.9553 10.402C21.902 10.4728 21.857 10.5302 21.8244 10.5711C21.8081 10.5915 21.7948 10.6079 21.7851 10.6198L21.7731 10.6343L21.7693 10.6389L21.7679 10.6406L21.7669 10.6418L21 10C21.7669 10.6418 21.7668 10.642 21.7669 10.6418C21.4124 11.0654 20.7817 11.1214 20.3582 10.7669C19.9348 10.4125 19.8789 9.78179 20.2331 9.35825L20.2374 9.35304L20.2615 9.32316C20.2836 9.29551 20.3167 9.2533 20.3572 9.19953C20.4389 9.09095 20.5465 8.94051 20.6524 8.77134C20.7599 8.59954 20.855 8.4254 20.9205 8.26791C20.9528 8.1903 20.9741 8.1259 20.9867 8.07531C20.9994 8.02431 21 8.00061 21 8.00003C21 7.99945 20.9994 7.97577 20.9867 7.92476C20.9741 7.87417 20.9528 7.80978 20.9205 7.73216C20.855 7.57468 20.7599 7.40053 20.6524 7.22874C20.5465 7.05956 20.4389 6.90913 20.3572 6.80054C20.3167 6.74678 20.2836 6.70457 20.2615 6.67691L20.2374 6.64704Z" fill="#53545C"></path>
  </symbol>
  <symbol fill="none" xmlns="http://www.w3.org/2000/svg" viewBox="0 0 34 34" id="upload-black">
    <g filter="url(#filter0_d_326_2899)">
      <rect x="5" y="5" width="24" height="24" rx="4" fill="#53545C"></rect>
      <path fill-rule="evenodd" clip-rule="evenodd" d="M14.8158 14.7787C14.6017 14.9531 14.2867 14.9209 14.1124 14.7068C13.938 14.4927 13.9701 14.1778 14.1842 14.0034L16.3685 12.2242C16.7362 11.9246 17.2638 11.9246 17.6316 12.2242L19.8158 14.0034C20.0299 14.1778 20.0621 14.4927 19.8877 14.7068C19.7133 14.9209 19.3983 14.9531 19.1842 14.7787L17.5352 13.4354V21.5003C17.5352 21.7764 17.3113 22.0003 17.0352 22.0003C16.759 22.0003 16.5352 21.7764 16.5352 21.5003V13.3782L14.8158 14.7787Z" fill="white"></path>
    </g>
    <defs>
      <filter id="filter0_d_326_2899" x="0" y="0" width="34" height="34" filterUnits="userSpaceOnUse" color-interpolation-filters="sRGB">
        <feFlood flood-opacity="0" result="BackgroundImageFix"></feFlood>
        <feColorMatrix in="SourceAlpha" type="matrix" values="0 0 0 0 0 0 0 0 0 0 0 0 0 0 0 0 0 0 127 0" result="hardAlpha"></feColorMatrix>
        <feOffset></feOffset>
        <feGaussianBlur stdDeviation="2.5"></feGaussianBlur>
        <feComposite in2="hardAlpha" operator="out"></feComposite>
        <feColorMatrix type="matrix" values="0 0 0 0 0.516667 0 0 0 0 0.516667 0 0 0 0 0.516667 0 0 0 0.15 0"></feColorMatrix>
        <feBlend mode="normal" in2="BackgroundImageFix" result="effect1_dropShadow_326_2899"></feBlend>
        <feBlend mode="normal" in="SourceGraphic" in2="effect1_dropShadow_326_2899" result="shape"></feBlend>
      </filter>
    </defs>
  </symbol>
  <symbol fill="none" xmlns="http://www.w3.org/2000/svg" viewBox="0 0 34 34" id="upload-gray">
    <g filter="url(#filter0_d_326_2900)">
      <rect x="5" y="5" width="24" height="24" rx="4" fill="#797A89"></rect>
      <path fill-rule="evenodd" clip-rule="evenodd" d="M14.8158 14.7787C14.6017 14.9531 14.2867 14.9209 14.1124 14.7068C13.938 14.4927 13.9701 14.1778 14.1842 14.0034L16.3685 12.2242C16.7362 11.9246 17.2638 11.9246 17.6316 12.2242L19.8158 14.0034C20.0299 14.1778 20.0621 14.4927 19.8877 14.7068C19.7133 14.9209 19.3983 14.9531 19.1842 14.7787L17.5352 13.4354V21.5003C17.5352 21.7764 17.3113 22.0003 17.0352 22.0003C16.759 22.0003 16.5352 21.7764 16.5352 21.5003V13.3782L14.8158 14.7787Z" fill="white"></path>
    </g>
    <defs>
      <filter id="filter0_d_326_2900" x="0" y="0" width="34" height="34" filterUnits="userSpaceOnUse" color-interpolation-filters="sRGB">
        <feFlood flood-opacity="0" result="BackgroundImageFix"></feFlood>
        <feColorMatrix in="SourceAlpha" type="matrix" values="0 0 0 0 0 0 0 0 0 0 0 0 0 0 0 0 0 0 127 0" result="hardAlpha"></feColorMatrix>
        <feOffset></feOffset>
        <feGaussianBlur stdDeviation="2.5"></feGaussianBlur>
        <feComposite in2="hardAlpha" operator="out"></feComposite>
        <feColorMatrix type="matrix" values="0 0 0 0 0.516667 0 0 0 0 0.516667 0 0 0 0 0.516667 0 0 0 0.15 0"></feColorMatrix>
        <feBlend mode="normal" in2="BackgroundImageFix" result="effect1_dropShadow_326_2900"></feBlend>
        <feBlend mode="normal" in="SourceGraphic" in2="effect1_dropShadow_326_2900" result="shape"></feBlend>
      </filter>
    </defs>
  </symbol>
</svg>