<svg width="100" height="100" viewBox="0 0 100 100" fill="none" xmlns="http://www.w3.org/2000/svg">
<rect width="100" height="100" rx="20" fill="#6356F8"/>
<path fill-rule="evenodd" clip-rule="evenodd" d="M26.5 28C26.5 23.5817 30.0817 20 34.5 20H58.6695C69.6216 20 78.5 28.8784 78.5 39.8305C78.5 50.7826 69.6216 59.661 58.6695 59.661H58.4286V48.0762H66.9071C68.641 48.0762 69.5534 46.0205 68.3903 44.7346L52.5445 27.216C51.7505 26.3382 50.372 26.3382 49.578 27.216L33.7322 44.7346C32.5691 46.0205 33.4816 48.0762 35.2155 48.0762H43.5715V59.661H43.4796V76C43.4796 78.2091 41.6887 80 39.4796 80H30.5C28.2909 80 26.5 78.2091 26.5 76V47.661V30.1017V28Z" fill="white"/>
</svg>
